<?xml version="1.0" encoding="UTF-8"?>
<svg xmlns="http://www.w3.org/2000/svg" viewBox="0 0 24 24" width="24" height="24" shape-rendering="crispEdges">
<rect x="9" y="0" width="6" height="1" fill="#58e890"/>
<rect x="8" y="1" width="2" height="1" fill="#58e890"/>
<rect x="10" y="1" width="1" height="1" fill="#1a9e8a"/>
<rect x="11" y="1" width="2" height="1" fill="#3828a8"/>
<rect x="13" y="1" width="1" height="1" fill="#1a9e8a"/>
<rect x="14" y="1" width="2" height="1" fill="#58e890"/>
<rect x="8" y="2" width="1" height="1" fill="#58e890"/>
<rect x="9" y="2" width="1" height="1" fill="#30c8b0"/>
<rect x="10" y="2" width="1" height="1" fill="#1a9e8a"/>
<rect x="11" y="2" width="2" height="1" fill="#3828a8"/>
<rect x="13" y="2" width="1" height="1" fill="#1a9e8a"/>
<rect x="14" y="2" width="1" height="1" fill="#30c8b0"/>
<rect x="15" y="2" width="1" height="1" fill="#58e890"/>
<rect x="8" y="3" width="1" height="1" fill="#58e890"/>
<rect x="9" y="3" width="1" height="1" fill="#30c8b0"/>
<rect x="10" y="3" width="1" height="1" fill="#1a9e8a"/>
<rect x="11" y="3" width="2" height="1" fill="#3828a8"/>
<rect x="13" y="3" width="1" height="1" fill="#1a9e8a"/>
<rect x="14" y="3" width="1" height="1" fill="#30c8b0"/>
<rect x="15" y="3" width="1" height="1" fill="#58e890"/>
<rect x="8" y="4" width="1" height="1" fill="#58e890"/>
<rect x="9" y="4" width="1" height="1" fill="#30c8b0"/>
<rect x="10" y="4" width="1" height="1" fill="#1a9e8a"/>
<rect x="11" y="4" width="2" height="1" fill="#3828a8"/>
<rect x="13" y="4" width="1" height="1" fill="#1a9e8a"/>
<rect x="14" y="4" width="1" height="1" fill="#30c8b0"/>
<rect x="15" y="4" width="1" height="1" fill="#58e890"/>
<rect x="8" y="5" width="1" height="1" fill="#58e890"/>
<rect x="9" y="5" width="1" height="1" fill="#30c8b0"/>
<rect x="10" y="5" width="1" height="1" fill="#1a9e8a"/>
<rect x="11" y="5" width="2" height="1" fill="#3828a8"/>
<rect x="13" y="5" width="1" height="1" fill="#1a9e8a"/>
<rect x="14" y="5" width="1" height="1" fill="#30c8b0"/>
<rect x="15" y="5" width="1" height="1" fill="#58e890"/>
<rect x="8" y="6" width="1" height="1" fill="#58e890"/>
<rect x="9" y="6" width="1" height="1" fill="#30c8b0"/>
<rect x="10" y="6" width="1" height="1" fill="#1a9e8a"/>
<rect x="11" y="6" width="2" height="1" fill="#3828a8"/>
<rect x="13" y="6" width="1" height="1" fill="#1a9e8a"/>
<rect x="14" y="6" width="1" height="1" fill="#30c8b0"/>
<rect x="15" y="6" width="1" height="1" fill="#58e890"/>
<rect x="8" y="7" width="1" height="1" fill="#58e890"/>
<rect x="9" y="7" width="1" height="1" fill="#30c8b0"/>
<rect x="10" y="7" width="1" height="1" fill="#1a9e8a"/>
<rect x="11" y="7" width="2" height="1" fill="#3828a8"/>
<rect x="13" y="7" width="1" height="1" fill="#1a9e8a"/>
<rect x="14" y="7" width="1" height="1" fill="#30c8b0"/>
<rect x="15" y="7" width="1" height="1" fill="#58e890"/>
<rect x="1" y="8" width="8" height="1" fill="#58e890"/>
<rect x="9" y="8" width="1" height="1" fill="#30c8b0"/>
<rect x="10" y="8" width="1" height="1" fill="#1a9e8a"/>
<rect x="11" y="8" width="2" height="1" fill="#3828a8"/>
<rect x="13" y="8" width="1" height="1" fill="#1a9e8a"/>
<rect x="14" y="8" width="1" height="1" fill="#30c8b0"/>
<rect x="15" y="8" width="8" height="1" fill="#58e890"/>
<rect x="0" y="9" width="2" height="1" fill="#58e890"/>
<rect x="2" y="9" width="8" height="1" fill="#30c8b0"/>
<rect x="10" y="9" width="1" height="1" fill="#1a9e8a"/>
<rect x="11" y="9" width="2" height="1" fill="#3828a8"/>
<rect x="13" y="9" width="1" height="1" fill="#1a9e8a"/>
<rect x="14" y="9" width="8" height="1" fill="#30c8b0"/>
<rect x="22" y="9" width="2" height="1" fill="#58e890"/>
<rect x="0" y="10" width="1" height="1" fill="#58e890"/>
<rect x="1" y="10" width="10" height="1" fill="#1a9e8a"/>
<rect x="11" y="10" width="2" height="1" fill="#3828a8"/>
<rect x="13" y="10" width="10" height="1" fill="#1a9e8a"/>
<rect x="23" y="10" width="1" height="1" fill="#58e890"/>
<rect x="0" y="11" width="1" height="1" fill="#58e890"/>
<rect x="1" y="11" width="22" height="1" fill="#3828a8"/>
<rect x="23" y="11" width="1" height="1" fill="#58e890"/>
<rect x="0" y="12" width="1" height="1" fill="#58e890"/>
<rect x="1" y="12" width="22" height="1" fill="#3828a8"/>
<rect x="23" y="12" width="1" height="1" fill="#58e890"/>
<rect x="0" y="13" width="1" height="1" fill="#58e890"/>
<rect x="1" y="13" width="10" height="1" fill="#1a9e8a"/>
<rect x="11" y="13" width="2" height="1" fill="#3828a8"/>
<rect x="13" y="13" width="10" height="1" fill="#1a9e8a"/>
<rect x="23" y="13" width="1" height="1" fill="#58e890"/>
<rect x="0" y="14" width="2" height="1" fill="#58e890"/>
<rect x="2" y="14" width="8" height="1" fill="#30c8b0"/>
<rect x="10" y="14" width="1" height="1" fill="#1a9e8a"/>
<rect x="11" y="14" width="2" height="1" fill="#3828a8"/>
<rect x="13" y="14" width="1" height="1" fill="#1a9e8a"/>
<rect x="14" y="14" width="8" height="1" fill="#30c8b0"/>
<rect x="22" y="14" width="2" height="1" fill="#58e890"/>
<rect x="1" y="15" width="8" height="1" fill="#58e890"/>
<rect x="9" y="15" width="1" height="1" fill="#30c8b0"/>
<rect x="10" y="15" width="1" height="1" fill="#1a9e8a"/>
<rect x="11" y="15" width="2" height="1" fill="#3828a8"/>
<rect x="13" y="15" width="1" height="1" fill="#1a9e8a"/>
<rect x="14" y="15" width="1" height="1" fill="#30c8b0"/>
<rect x="15" y="15" width="8" height="1" fill="#58e890"/>
<rect x="8" y="16" width="1" height="1" fill="#58e890"/>
<rect x="9" y="16" width="1" height="1" fill="#30c8b0"/>
<rect x="10" y="16" width="1" height="1" fill="#1a9e8a"/>
<rect x="11" y="16" width="2" height="1" fill="#3828a8"/>
<rect x="13" y="16" width="1" height="1" fill="#1a9e8a"/>
<rect x="14" y="16" width="1" height="1" fill="#30c8b0"/>
<rect x="15" y="16" width="1" height="1" fill="#58e890"/>
<rect x="8" y="17" width="1" height="1" fill="#58e890"/>
<rect x="9" y="17" width="1" height="1" fill="#30c8b0"/>
<rect x="10" y="17" width="1" height="1" fill="#1a9e8a"/>
<rect x="11" y="17" width="2" height="1" fill="#3828a8"/>
<rect x="13" y="17" width="1" height="1" fill="#1a9e8a"/>
<rect x="14" y="17" width="1" height="1" fill="#30c8b0"/>
<rect x="15" y="17" width="1" height="1" fill="#58e890"/>
<rect x="8" y="18" width="1" height="1" fill="#58e890"/>
<rect x="9" y="18" width="1" height="1" fill="#30c8b0"/>
<rect x="10" y="18" width="1" height="1" fill="#1a9e8a"/>
<rect x="11" y="18" width="2" height="1" fill="#3828a8"/>
<rect x="13" y="18" width="1" height="1" fill="#1a9e8a"/>
<rect x="14" y="18" width="1" height="1" fill="#30c8b0"/>
<rect x="15" y="18" width="1" height="1" fill="#58e890"/>
<rect x="8" y="19" width="1" height="1" fill="#58e890"/>
<rect x="9" y="19" width="1" height="1" fill="#30c8b0"/>
<rect x="10" y="19" width="1" height="1" fill="#1a9e8a"/>
<rect x="11" y="19" width="2" height="1" fill="#3828a8"/>
<rect x="13" y="19" width="1" height="1" fill="#1a9e8a"/>
<rect x="14" y="19" width="1" height="1" fill="#30c8b0"/>
<rect x="15" y="19" width="1" height="1" fill="#58e890"/>
<rect x="8" y="20" width="1" height="1" fill="#58e890"/>
<rect x="9" y="20" width="1" height="1" fill="#30c8b0"/>
<rect x="10" y="20" width="1" height="1" fill="#1a9e8a"/>
<rect x="11" y="20" width="2" height="1" fill="#3828a8"/>
<rect x="13" y="20" width="1" height="1" fill="#1a9e8a"/>
<rect x="14" y="20" width="1" height="1" fill="#30c8b0"/>
<rect x="15" y="20" width="1" height="1" fill="#58e890"/>
<rect x="8" y="21" width="1" height="1" fill="#58e890"/>
<rect x="9" y="21" width="1" height="1" fill="#30c8b0"/>
<rect x="10" y="21" width="1" height="1" fill="#1a9e8a"/>
<rect x="11" y="21" width="2" height="1" fill="#3828a8"/>
<rect x="13" y="21" width="1" height="1" fill="#1a9e8a"/>
<rect x="14" y="21" width="1" height="1" fill="#30c8b0"/>
<rect x="15" y="21" width="1" height="1" fill="#58e890"/>
<rect x="8" y="22" width="2" height="1" fill="#58e890"/>
<rect x="10" y="22" width="1" height="1" fill="#1a9e8a"/>
<rect x="11" y="22" width="2" height="1" fill="#3828a8"/>
<rect x="13" y="22" width="1" height="1" fill="#1a9e8a"/>
<rect x="14" y="22" width="2" height="1" fill="#58e890"/>
<rect x="9" y="23" width="6" height="1" fill="#58e890"/>
</svg>