<?xml version="1.0" encoding="UTF-8"?>
<svg xmlns="http://www.w3.org/2000/svg" viewBox="0 0 24 24" width="24" height="24" shape-rendering="crispEdges">
<rect x="11" y="0" width="2" height="1" fill="#e840a0"/>
<rect x="10" y="1" width="4" height="1" fill="#e840a0"/>
<rect x="9" y="2" width="2" height="1" fill="#e840a0"/>
<rect x="11" y="2" width="2" height="1" fill="#f0d030"/>
<rect x="13" y="2" width="2" height="1" fill="#e840a0"/>
<rect x="9" y="3" width="2" height="1" fill="#e840a0"/>
<rect x="11" y="3" width="2" height="1" fill="#f0d030"/>
<rect x="13" y="3" width="2" height="1" fill="#e840a0"/>
<rect x="8" y="4" width="2" height="1" fill="#e840a0"/>
<rect x="10" y="4" width="4" height="1" fill="#f0d030"/>
<rect x="14" y="4" width="2" height="1" fill="#e840a0"/>
<rect x="7" y="5" width="3" height="1" fill="#e840a0"/>
<rect x="10" y="5" width="4" height="1" fill="#f0d030"/>
<rect x="14" y="5" width="3" height="1" fill="#e840a0"/>
<rect x="7" y="6" width="2" height="1" fill="#e840a0"/>
<rect x="9" y="6" width="6" height="1" fill="#f0d030"/>
<rect x="15" y="6" width="2" height="1" fill="#e840a0"/>
<rect x="6" y="7" width="2" height="1" fill="#e840a0"/>
<rect x="8" y="7" width="3" height="1" fill="#f0d030"/>
<rect x="11" y="7" width="2" height="1" fill="#080818"/>
<rect x="13" y="7" width="3" height="1" fill="#f0d030"/>
<rect x="16" y="7" width="2" height="1" fill="#e840a0"/>
<rect x="5" y="8" width="3" height="1" fill="#e840a0"/>
<rect x="8" y="8" width="2" height="1" fill="#f0d030"/>
<rect x="10" y="8" width="4" height="1" fill="#080818"/>
<rect x="14" y="8" width="2" height="1" fill="#f0d030"/>
<rect x="16" y="8" width="3" height="1" fill="#e840a0"/>
<rect x="4" y="9" width="3" height="1" fill="#e840a0"/>
<rect x="7" y="9" width="3" height="1" fill="#f0d030"/>
<rect x="10" y="9" width="4" height="1" fill="#080818"/>
<rect x="14" y="9" width="3" height="1" fill="#f0d030"/>
<rect x="17" y="9" width="3" height="1" fill="#e840a0"/>
<rect x="4" y="10" width="2" height="1" fill="#e840a0"/>
<rect x="6" y="10" width="4" height="1" fill="#f0d030"/>
<rect x="10" y="10" width="4" height="1" fill="#080818"/>
<rect x="14" y="10" width="4" height="1" fill="#f0d030"/>
<rect x="18" y="10" width="2" height="1" fill="#e840a0"/>
<rect x="3" y="11" width="2" height="1" fill="#e840a0"/>
<rect x="5" y="11" width="5" height="1" fill="#f0d030"/>
<rect x="10" y="11" width="4" height="1" fill="#080818"/>
<rect x="14" y="11" width="5" height="1" fill="#f0d030"/>
<rect x="19" y="11" width="2" height="1" fill="#e840a0"/>
<rect x="3" y="12" width="2" height="1" fill="#e840a0"/>
<rect x="5" y="12" width="5" height="1" fill="#f0d030"/>
<rect x="10" y="12" width="4" height="1" fill="#080818"/>
<rect x="14" y="12" width="5" height="1" fill="#f0d030"/>
<rect x="19" y="12" width="2" height="1" fill="#e840a0"/>
<rect x="2" y="13" width="3" height="1" fill="#e840a0"/>
<rect x="5" y="13" width="5" height="1" fill="#f0d030"/>
<rect x="10" y="13" width="4" height="1" fill="#080818"/>
<rect x="14" y="13" width="5" height="1" fill="#f0d030"/>
<rect x="19" y="13" width="3" height="1" fill="#e840a0"/>
<rect x="1" y="14" width="3" height="1" fill="#e840a0"/>
<rect x="4" y="14" width="7" height="1" fill="#f0d030"/>
<rect x="11" y="14" width="2" height="1" fill="#080818"/>
<rect x="13" y="14" width="7" height="1" fill="#f0d030"/>
<rect x="20" y="14" width="3" height="1" fill="#e840a0"/>
<rect x="1" y="15" width="2" height="1" fill="#e840a0"/>
<rect x="3" y="15" width="8" height="1" fill="#f0d030"/>
<rect x="11" y="15" width="2" height="1" fill="#080818"/>
<rect x="13" y="15" width="8" height="1" fill="#f0d030"/>
<rect x="21" y="15" width="2" height="1" fill="#e840a0"/>
<rect x="1" y="16" width="2" height="1" fill="#e840a0"/>
<rect x="3" y="16" width="8" height="1" fill="#f0d030"/>
<rect x="11" y="16" width="2" height="1" fill="#080818"/>
<rect x="13" y="16" width="8" height="1" fill="#f0d030"/>
<rect x="21" y="16" width="2" height="1" fill="#e840a0"/>
<rect x="0" y="17" width="3" height="1" fill="#e840a0"/>
<rect x="3" y="17" width="18" height="1" fill="#f0d030"/>
<rect x="21" y="17" width="3" height="1" fill="#e840a0"/>
<rect x="0" y="18" width="3" height="1" fill="#e840a0"/>
<rect x="3" y="18" width="8" height="1" fill="#f0d030"/>
<rect x="11" y="18" width="2" height="1" fill="#080818"/>
<rect x="13" y="18" width="8" height="1" fill="#f0d030"/>
<rect x="21" y="18" width="3" height="1" fill="#e840a0"/>
<rect x="0" y="19" width="2" height="1" fill="#e840a0"/>
<rect x="2" y="19" width="8" height="1" fill="#f0d030"/>
<rect x="10" y="19" width="4" height="1" fill="#080818"/>
<rect x="14" y="19" width="8" height="1" fill="#f0d030"/>
<rect x="22" y="19" width="2" height="1" fill="#e840a0"/>
<rect x="0" y="20" width="2" height="1" fill="#e840a0"/>
<rect x="2" y="20" width="9" height="1" fill="#f0d030"/>
<rect x="11" y="20" width="2" height="1" fill="#080818"/>
<rect x="13" y="20" width="9" height="1" fill="#f0d030"/>
<rect x="22" y="20" width="2" height="1" fill="#e840a0"/>
<rect x="0" y="21" width="2" height="1" fill="#e840a0"/>
<rect x="2" y="21" width="20" height="1" fill="#f0d030"/>
<rect x="22" y="21" width="2" height="1" fill="#e840a0"/>
<rect x="0" y="22" width="24" height="1" fill="#e840a0"/>
<rect x="1" y="23" width="22" height="1" fill="#e840a0"/>
</svg>