<?xml version="1.0" encoding="UTF-8"?>
<svg xmlns="http://www.w3.org/2000/svg" viewBox="0 0 24 24" width="24" height="24" shape-rendering="crispEdges">
<rect x="11" y="0" width="2" height="1" fill="#e840a0"/>
<rect x="6" y="1" width="1" height="1" fill="#080818"/>
<rect x="7" y="1" width="2" height="1" fill="#3828a8"/>
<rect x="10" y="1" width="4" height="1" fill="#e840a0"/>
<rect x="15" y="1" width="2" height="1" fill="#3828a8"/>
<rect x="17" y="1" width="1" height="1" fill="#080818"/>
<rect x="6" y="2" width="1" height="1" fill="#080818"/>
<rect x="7" y="2" width="3" height="1" fill="#3828a8"/>
<rect x="10" y="2" width="1" height="1" fill="#e840a0"/>
<rect x="11" y="2" width="1" height="1" fill="#f0d030"/>
<rect x="12" y="2" width="2" height="1" fill="#e840a0"/>
<rect x="14" y="2" width="3" height="1" fill="#3828a8"/>
<rect x="17" y="2" width="1" height="1" fill="#080818"/>
<rect x="4" y="3" width="2" height="1" fill="#e840a0"/>
<rect x="6" y="3" width="1" height="1" fill="#080818"/>
<rect x="7" y="3" width="3" height="1" fill="#3828a8"/>
<rect x="10" y="3" width="1" height="1" fill="#e840a0"/>
<rect x="11" y="3" width="1" height="1" fill="#f0d030"/>
<rect x="12" y="3" width="2" height="1" fill="#e840a0"/>
<rect x="14" y="3" width="3" height="1" fill="#3828a8"/>
<rect x="17" y="3" width="2" height="1" fill="#e840a0"/>
<rect x="19" y="3" width="1" height="1" fill="#f0d030"/>
<rect x="20" y="3" width="1" height="1" fill="#e840a0"/>
<rect x="3" y="4" width="2" height="1" fill="#e840a0"/>
<rect x="5" y="4" width="3" height="1" fill="#f0d030"/>
<rect x="8" y="4" width="2" height="1" fill="#3828a8"/>
<rect x="10" y="4" width="1" height="1" fill="#e840a0"/>
<rect x="11" y="4" width="2" height="1" fill="#f0d030"/>
<rect x="13" y="4" width="1" height="1" fill="#e840a0"/>
<rect x="14" y="4" width="2" height="1" fill="#3828a8"/>
<rect x="16" y="4" width="2" height="1" fill="#e840a0"/>
<rect x="18" y="4" width="2" height="1" fill="#f0d030"/>
<rect x="20" y="4" width="1" height="1" fill="#e840a0"/>
<rect x="3" y="5" width="3" height="1" fill="#e840a0"/>
<rect x="6" y="5" width="3" height="1" fill="#f0d030"/>
<rect x="9" y="5" width="1" height="1" fill="#3828a8"/>
<rect x="10" y="5" width="1" height="1" fill="#e840a0"/>
<rect x="11" y="5" width="2" height="1" fill="#f0d030"/>
<rect x="13" y="5" width="1" height="1" fill="#e840a0"/>
<rect x="14" y="5" width="1" height="1" fill="#3828a8"/>
<rect x="15" y="5" width="2" height="1" fill="#e840a0"/>
<rect x="17" y="5" width="1" height="1" fill="#f0d030"/>
<rect x="18" y="5" width="3" height="1" fill="#e840a0"/>
<rect x="1" y="6" width="3" height="1" fill="#3828a8"/>
<rect x="4" y="6" width="1" height="1" fill="#e840a0"/>
<rect x="5" y="6" width="1" height="1" fill="#f0d030"/>
<rect x="6" y="6" width="1" height="1" fill="#e840a0"/>
<rect x="7" y="6" width="3" height="1" fill="#f0d030"/>
<rect x="10" y="6" width="1" height="1" fill="#e840a0"/>
<rect x="11" y="6" width="2" height="1" fill="#f0d030"/>
<rect x="13" y="6" width="1" height="1" fill="#e840a0"/>
<rect x="14" y="6" width="1" height="1" fill="#f0d030"/>
<rect x="15" y="6" width="1" height="1" fill="#e840a0"/>
<rect x="16" y="6" width="1" height="1" fill="#f0d030"/>
<rect x="17" y="6" width="3" height="1" fill="#e840a0"/>
<rect x="20" y="6" width="3" height="1" fill="#3828a8"/>
<rect x="1" y="7" width="1" height="1" fill="#080818"/>
<rect x="2" y="7" width="3" height="1" fill="#3828a8"/>
<rect x="5" y="7" width="2" height="1" fill="#f0d030"/>
<rect x="7" y="7" width="1" height="1" fill="#e840a0"/>
<rect x="8" y="7" width="2" height="1" fill="#f0d030"/>
<rect x="10" y="7" width="1" height="1" fill="#e840a0"/>
<rect x="11" y="7" width="2" height="1" fill="#f0d030"/>
<rect x="13" y="7" width="1" height="1" fill="#e840a0"/>
<rect x="14" y="7" width="2" height="1" fill="#f0d030"/>
<rect x="16" y="7" width="3" height="1" fill="#e840a0"/>
<rect x="19" y="7" width="4" height="1" fill="#3828a8"/>
<rect x="1" y="8" width="2" height="1" fill="#080818"/>
<rect x="3" y="8" width="2" height="1" fill="#3828a8"/>
<rect x="5" y="8" width="2" height="1" fill="#e840a0"/>
<rect x="7" y="8" width="1" height="1" fill="#f0d030"/>
<rect x="8" y="8" width="1" height="1" fill="#e840a0"/>
<rect x="9" y="8" width="2" height="1" fill="#f0d030"/>
<rect x="11" y="8" width="2" height="1" fill="#e840a0"/>
<rect x="13" y="8" width="2" height="1" fill="#f0d030"/>
<rect x="15" y="8" width="1" height="1" fill="#e840a0"/>
<rect x="16" y="8" width="1" height="1" fill="#f0d030"/>
<rect x="17" y="8" width="1" height="1" fill="#e840a0"/>
<rect x="18" y="8" width="1" height="1" fill="#f0d030"/>
<rect x="19" y="8" width="2" height="1" fill="#3828a8"/>
<rect x="21" y="8" width="2" height="1" fill="#080818"/>
<rect x="3" y="9" width="4" height="1" fill="#3828a8"/>
<rect x="7" y="9" width="2" height="1" fill="#f0d030"/>
<rect x="9" y="9" width="1" height="1" fill="#3828a8"/>
<rect x="10" y="9" width="1" height="1" fill="#f0d030"/>
<rect x="11" y="9" width="2" height="1" fill="#080818"/>
<rect x="13" y="9" width="1" height="1" fill="#f0d030"/>
<rect x="14" y="9" width="1" height="1" fill="#3828a8"/>
<rect x="15" y="9" width="3" height="1" fill="#f0d030"/>
<rect x="18" y="9" width="3" height="1" fill="#3828a8"/>
<rect x="21" y="9" width="1" height="1" fill="#080818"/>
<rect x="2" y="10" width="6" height="1" fill="#e840a0"/>
<rect x="8" y="10" width="2" height="1" fill="#f0d030"/>
<rect x="10" y="10" width="1" height="1" fill="#e840a0"/>
<rect x="11" y="10" width="2" height="1" fill="#080818"/>
<rect x="13" y="10" width="1" height="1" fill="#e840a0"/>
<rect x="14" y="10" width="2" height="1" fill="#f0d030"/>
<rect x="16" y="10" width="6" height="1" fill="#e840a0"/>
<rect x="1" y="11" width="2" height="1" fill="#e840a0"/>
<rect x="3" y="11" width="5" height="1" fill="#f0d030"/>
<rect x="8" y="11" width="1" height="1" fill="#e840a0"/>
<rect x="9" y="11" width="6" height="1" fill="#080818"/>
<rect x="15" y="11" width="1" height="1" fill="#e840a0"/>
<rect x="16" y="11" width="5" height="1" fill="#f0d030"/>
<rect x="21" y="11" width="2" height="1" fill="#e840a0"/>
<rect x="1" y="12" width="2" height="1" fill="#e840a0"/>
<rect x="3" y="12" width="1" height="1" fill="#f0d030"/>
<rect x="4" y="12" width="1" height="1" fill="#e840a0"/>
<rect x="5" y="12" width="3" height="1" fill="#f0d030"/>
<rect x="8" y="12" width="1" height="1" fill="#e840a0"/>
<rect x="9" y="12" width="6" height="1" fill="#080818"/>
<rect x="15" y="12" width="1" height="1" fill="#e840a0"/>
<rect x="16" y="12" width="4" height="1" fill="#f0d030"/>
<rect x="20" y="12" width="3" height="1" fill="#e840a0"/>
<rect x="2" y="13" width="6" height="1" fill="#e840a0"/>
<rect x="8" y="13" width="2" height="1" fill="#f0d030"/>
<rect x="10" y="13" width="1" height="1" fill="#e840a0"/>
<rect x="11" y="13" width="2" height="1" fill="#080818"/>
<rect x="13" y="13" width="1" height="1" fill="#e840a0"/>
<rect x="14" y="13" width="2" height="1" fill="#f0d030"/>
<rect x="16" y="13" width="6" height="1" fill="#e840a0"/>
<rect x="2" y="14" width="4" height="1" fill="#3828a8"/>
<rect x="6" y="14" width="3" height="1" fill="#f0d030"/>
<rect x="9" y="14" width="1" height="1" fill="#3828a8"/>
<rect x="10" y="14" width="1" height="1" fill="#f0d030"/>
<rect x="11" y="14" width="2" height="1" fill="#080818"/>
<rect x="13" y="14" width="1" height="1" fill="#f0d030"/>
<rect x="14" y="14" width="1" height="1" fill="#3828a8"/>
<rect x="15" y="14" width="3" height="1" fill="#f0d030"/>
<rect x="18" y="14" width="4" height="1" fill="#3828a8"/>
<rect x="1" y="15" width="1" height="1" fill="#080818"/>
<rect x="2" y="15" width="3" height="1" fill="#3828a8"/>
<rect x="5" y="15" width="3" height="1" fill="#f0d030"/>
<rect x="8" y="15" width="1" height="1" fill="#e840a0"/>
<rect x="9" y="15" width="2" height="1" fill="#f0d030"/>
<rect x="11" y="15" width="2" height="1" fill="#e840a0"/>
<rect x="13" y="15" width="2" height="1" fill="#f0d030"/>
<rect x="15" y="15" width="1" height="1" fill="#e840a0"/>
<rect x="16" y="15" width="3" height="1" fill="#f0d030"/>
<rect x="19" y="15" width="4" height="1" fill="#3828a8"/>
<rect x="1" y="16" width="1" height="1" fill="#080818"/>
<rect x="2" y="16" width="2" height="1" fill="#3828a8"/>
<rect x="4" y="16" width="3" height="1" fill="#f0d030"/>
<rect x="7" y="16" width="1" height="1" fill="#e840a0"/>
<rect x="8" y="16" width="2" height="1" fill="#f0d030"/>
<rect x="10" y="16" width="1" height="1" fill="#e840a0"/>
<rect x="11" y="16" width="2" height="1" fill="#f0d030"/>
<rect x="13" y="16" width="1" height="1" fill="#e840a0"/>
<rect x="14" y="16" width="2" height="1" fill="#f0d030"/>
<rect x="16" y="16" width="1" height="1" fill="#e840a0"/>
<rect x="17" y="16" width="3" height="1" fill="#f0d030"/>
<rect x="20" y="16" width="3" height="1" fill="#3828a8"/>
<rect x="3" y="17" width="3" height="1" fill="#f0d030"/>
<rect x="6" y="17" width="1" height="1" fill="#e840a0"/>
<rect x="7" y="17" width="3" height="1" fill="#f0d030"/>
<rect x="10" y="17" width="1" height="1" fill="#e840a0"/>
<rect x="11" y="17" width="2" height="1" fill="#f0d030"/>
<rect x="13" y="17" width="1" height="1" fill="#e840a0"/>
<rect x="14" y="17" width="1" height="1" fill="#3828a8"/>
<rect x="15" y="17" width="1" height="1" fill="#e840a0"/>
<rect x="16" y="17" width="1" height="1" fill="#f0d030"/>
<rect x="17" y="17" width="1" height="1" fill="#e840a0"/>
<rect x="18" y="17" width="2" height="1" fill="#f0d030"/>
<rect x="20" y="17" width="3" height="1" fill="#080818"/>
<rect x="3" y="18" width="2" height="1" fill="#f0d030"/>
<rect x="5" y="18" width="1" height="1" fill="#e840a0"/>
<rect x="6" y="18" width="1" height="1" fill="#f0d030"/>
<rect x="7" y="18" width="1" height="1" fill="#e840a0"/>
<rect x="8" y="18" width="2" height="1" fill="#3828a8"/>
<rect x="10" y="18" width="1" height="1" fill="#e840a0"/>
<rect x="11" y="18" width="2" height="1" fill="#f0d030"/>
<rect x="13" y="18" width="1" height="1" fill="#e840a0"/>
<rect x="14" y="18" width="1" height="1" fill="#3828a8"/>
<rect x="15" y="18" width="2" height="1" fill="#e840a0"/>
<rect x="17" y="18" width="1" height="1" fill="#f0d030"/>
<rect x="18" y="18" width="1" height="1" fill="#e840a0"/>
<rect x="19" y="18" width="2" height="1" fill="#f0d030"/>
<rect x="3" y="19" width="5" height="1" fill="#e840a0"/>
<rect x="8" y="19" width="2" height="1" fill="#3828a8"/>
<rect x="10" y="19" width="1" height="1" fill="#e840a0"/>
<rect x="11" y="19" width="2" height="1" fill="#f0d030"/>
<rect x="13" y="19" width="1" height="1" fill="#e840a0"/>
<rect x="14" y="19" width="2" height="1" fill="#3828a8"/>
<rect x="16" y="19" width="5" height="1" fill="#e840a0"/>
<rect x="3" y="20" width="3" height="1" fill="#e840a0"/>
<rect x="7" y="20" width="3" height="1" fill="#3828a8"/>
<rect x="10" y="20" width="2" height="1" fill="#e840a0"/>
<rect x="12" y="20" width="1" height="1" fill="#f0d030"/>
<rect x="13" y="20" width="1" height="1" fill="#e840a0"/>
<rect x="14" y="20" width="3" height="1" fill="#3828a8"/>
<rect x="18" y="20" width="2" height="1" fill="#e840a0"/>
<rect x="6" y="21" width="1" height="1" fill="#080818"/>
<rect x="7" y="21" width="3" height="1" fill="#3828a8"/>
<rect x="10" y="21" width="1" height="1" fill="#e840a0"/>
<rect x="11" y="21" width="2" height="1" fill="#f0d030"/>
<rect x="13" y="21" width="1" height="1" fill="#e840a0"/>
<rect x="14" y="21" width="1" height="1" fill="#080818"/>
<rect x="15" y="21" width="2" height="1" fill="#3828a8"/>
<rect x="6" y="22" width="2" height="1" fill="#080818"/>
<rect x="8" y="22" width="1" height="1" fill="#3828a8"/>
<rect x="10" y="22" width="4" height="1" fill="#e840a0"/>
<rect x="15" y="22" width="1" height="1" fill="#080818"/>
<rect x="16" y="22" width="1" height="1" fill="#3828a8"/>
<rect x="11" y="23" width="2" height="1" fill="#e840a0"/>
</svg>