<?xml version="1.0" encoding="UTF-8"?>
<svg xmlns="http://www.w3.org/2000/svg" viewBox="0 0 24 24" width="24" height="24" shape-rendering="crispEdges">
<rect x="19" y="3" width="4" height="1" fill="#58e890"/>
<rect x="18" y="4" width="6" height="1" fill="#58e890"/>
<rect x="17" y="5" width="1" height="1" fill="#58e890"/>
<rect x="18" y="5" width="1" height="1" fill="#1a9e8a"/>
<rect x="19" y="5" width="2" height="1" fill="#58e890"/>
<rect x="21" y="5" width="2" height="1" fill="#d0f0ec"/>
<rect x="23" y="5" width="1" height="1" fill="#58e890"/>
<rect x="16" y="6" width="1" height="1" fill="#58e890"/>
<rect x="17" y="6" width="1" height="1" fill="#1a9e8a"/>
<rect x="18" y="6" width="2" height="1" fill="#58e890"/>
<rect x="20" y="6" width="2" height="1" fill="#d0f0ec"/>
<rect x="22" y="6" width="1" height="1" fill="#30c8b0"/>
<rect x="15" y="7" width="1" height="1" fill="#58e890"/>
<rect x="16" y="7" width="1" height="1" fill="#1a9e8a"/>
<rect x="17" y="7" width="2" height="1" fill="#58e890"/>
<rect x="19" y="7" width="2" height="1" fill="#d0f0ec"/>
<rect x="21" y="7" width="2" height="1" fill="#30c8b0"/>
<rect x="14" y="8" width="1" height="1" fill="#58e890"/>
<rect x="15" y="8" width="1" height="1" fill="#1a9e8a"/>
<rect x="16" y="8" width="3" height="1" fill="#58e890"/>
<rect x="19" y="8" width="1" height="1" fill="#d0f0ec"/>
<rect x="20" y="8" width="2" height="1" fill="#30c8b0"/>
<rect x="3" y="9" width="1" height="1" fill="#58e890"/>
<rect x="13" y="9" width="1" height="1" fill="#58e890"/>
<rect x="14" y="9" width="1" height="1" fill="#1a9e8a"/>
<rect x="15" y="9" width="2" height="1" fill="#58e890"/>
<rect x="17" y="9" width="3" height="1" fill="#d0f0ec"/>
<rect x="20" y="9" width="1" height="1" fill="#30c8b0"/>
<rect x="2" y="10" width="1" height="1" fill="#58e890"/>
<rect x="3" y="10" width="1" height="1" fill="#30c8b0"/>
<rect x="4" y="10" width="1" height="1" fill="#58e890"/>
<rect x="12" y="10" width="1" height="1" fill="#58e890"/>
<rect x="13" y="10" width="1" height="1" fill="#1a9e8a"/>
<rect x="14" y="10" width="1" height="1" fill="#58e890"/>
<rect x="15" y="10" width="3" height="1" fill="#d0f0ec"/>
<rect x="18" y="10" width="2" height="1" fill="#30c8b0"/>
<rect x="1" y="11" width="1" height="1" fill="#58e890"/>
<rect x="2" y="11" width="2" height="1" fill="#30c8b0"/>
<rect x="4" y="11" width="1" height="1" fill="#d0f0ec"/>
<rect x="5" y="11" width="1" height="1" fill="#58e890"/>
<rect x="11" y="11" width="1" height="1" fill="#58e890"/>
<rect x="12" y="11" width="1" height="1" fill="#1a9e8a"/>
<rect x="13" y="11" width="1" height="1" fill="#58e890"/>
<rect x="14" y="11" width="2" height="1" fill="#d0f0ec"/>
<rect x="16" y="11" width="3" height="1" fill="#30c8b0"/>
<rect x="0" y="12" width="1" height="1" fill="#58e890"/>
<rect x="1" y="12" width="4" height="1" fill="#30c8b0"/>
<rect x="5" y="12" width="1" height="1" fill="#d0f0ec"/>
<rect x="6" y="12" width="1" height="1" fill="#58e890"/>
<rect x="10" y="12" width="1" height="1" fill="#58e890"/>
<rect x="11" y="12" width="1" height="1" fill="#1a9e8a"/>
<rect x="12" y="12" width="1" height="1" fill="#30c8b0"/>
<rect x="13" y="12" width="2" height="1" fill="#d0f0ec"/>
<rect x="15" y="12" width="3" height="1" fill="#30c8b0"/>
<rect x="18" y="12" width="1" height="1" fill="#1a9e8a"/>
<rect x="0" y="13" width="1" height="1" fill="#1a9e8a"/>
<rect x="1" y="13" width="5" height="1" fill="#30c8b0"/>
<rect x="6" y="13" width="1" height="1" fill="#d0f0ec"/>
<rect x="7" y="13" width="1" height="1" fill="#58e890"/>
<rect x="9" y="13" width="1" height="1" fill="#58e890"/>
<rect x="10" y="13" width="1" height="1" fill="#1a9e8a"/>
<rect x="11" y="13" width="1" height="1" fill="#30c8b0"/>
<rect x="12" y="13" width="2" height="1" fill="#d0f0ec"/>
<rect x="14" y="13" width="3" height="1" fill="#30c8b0"/>
<rect x="17" y="13" width="1" height="1" fill="#1a9e8a"/>
<rect x="1" y="14" width="1" height="1" fill="#1a9e8a"/>
<rect x="2" y="14" width="5" height="1" fill="#30c8b0"/>
<rect x="7" y="14" width="1" height="1" fill="#d0f0ec"/>
<rect x="8" y="14" width="1" height="1" fill="#58e890"/>
<rect x="9" y="14" width="1" height="1" fill="#1a9e8a"/>
<rect x="10" y="14" width="6" height="1" fill="#30c8b0"/>
<rect x="16" y="14" width="1" height="1" fill="#1a9e8a"/>
<rect x="2" y="15" width="1" height="1" fill="#1a9e8a"/>
<rect x="3" y="15" width="12" height="1" fill="#30c8b0"/>
<rect x="15" y="15" width="2" height="1" fill="#1a9e8a"/>
<rect x="2" y="16" width="1" height="1" fill="#1a9e8a"/>
<rect x="3" y="16" width="11" height="1" fill="#30c8b0"/>
<rect x="14" y="16" width="2" height="1" fill="#1a9e8a"/>
<rect x="3" y="17" width="1" height="1" fill="#1a9e8a"/>
<rect x="4" y="17" width="9" height="1" fill="#30c8b0"/>
<rect x="13" y="17" width="2" height="1" fill="#1a9e8a"/>
<rect x="4" y="18" width="1" height="1" fill="#1a9e8a"/>
<rect x="5" y="18" width="7" height="1" fill="#30c8b0"/>
<rect x="12" y="18" width="2" height="1" fill="#1a9e8a"/>
<rect x="5" y="19" width="1" height="1" fill="#1a9e8a"/>
<rect x="6" y="19" width="5" height="1" fill="#30c8b0"/>
<rect x="11" y="19" width="2" height="1" fill="#1a9e8a"/>
<rect x="6" y="20" width="1" height="1" fill="#1a9e8a"/>
<rect x="7" y="20" width="3" height="1" fill="#30c8b0"/>
<rect x="10" y="20" width="2" height="1" fill="#1a9e8a"/>
<rect x="7" y="21" width="4" height="1" fill="#1a9e8a"/>
<rect x="8" y="22" width="2" height="1" fill="#1a9e8a"/>
</svg>