<?xml version="1.0" encoding="UTF-8"?>
<svg xmlns="http://www.w3.org/2000/svg" viewBox="0 0 24 24" width="24" height="24" shape-rendering="crispEdges">
<rect x="1" y="0" width="3" height="1" fill="#3828a8"/>
<rect x="20" y="0" width="3" height="1" fill="#3828a8"/>
<rect x="0" y="1" width="1" height="1" fill="#3828a8"/>
<rect x="1" y="1" width="2" height="1" fill="#e8e0f8"/>
<rect x="3" y="1" width="1" height="1" fill="#30c8b0"/>
<rect x="4" y="1" width="16" height="1" fill="#3828a8"/>
<rect x="20" y="1" width="1" height="1" fill="#30c8b0"/>
<rect x="21" y="1" width="2" height="1" fill="#e8e0f8"/>
<rect x="23" y="1" width="1" height="1" fill="#3828a8"/>
<rect x="0" y="2" width="1" height="1" fill="#3828a8"/>
<rect x="1" y="2" width="2" height="1" fill="#e8e0f8"/>
<rect x="3" y="2" width="3" height="1" fill="#f0d030"/>
<rect x="6" y="2" width="1" height="1" fill="#e840a0"/>
<rect x="7" y="2" width="5" height="1" fill="#e8e0f8"/>
<rect x="12" y="2" width="1" height="1" fill="#e840a0"/>
<rect x="13" y="2" width="2" height="1" fill="#f0d030"/>
<rect x="15" y="2" width="1" height="1" fill="#e840a0"/>
<rect x="16" y="2" width="1" height="1" fill="#f0d030"/>
<rect x="17" y="2" width="3" height="1" fill="#30c8b0"/>
<rect x="20" y="2" width="3" height="1" fill="#e8e0f8"/>
<rect x="23" y="2" width="1" height="1" fill="#3828a8"/>
<rect x="0" y="3" width="1" height="1" fill="#3828a8"/>
<rect x="1" y="3" width="1" height="1" fill="#30c8b0"/>
<rect x="2" y="3" width="2" height="1" fill="#e8e0f8"/>
<rect x="4" y="3" width="2" height="1" fill="#f0d030"/>
<rect x="6" y="3" width="1" height="1" fill="#e840a0"/>
<rect x="7" y="3" width="6" height="1" fill="#e8e0f8"/>
<rect x="13" y="3" width="1" height="1" fill="#e840a0"/>
<rect x="14" y="3" width="2" height="1" fill="#f0d030"/>
<rect x="16" y="3" width="1" height="1" fill="#e840a0"/>
<rect x="17" y="3" width="1" height="1" fill="#f0d030"/>
<rect x="18" y="3" width="4" height="1" fill="#e8e0f8"/>
<rect x="22" y="3" width="1" height="1" fill="#30c8b0"/>
<rect x="23" y="3" width="1" height="1" fill="#3828a8"/>
<rect x="1" y="4" width="1" height="1" fill="#3828a8"/>
<rect x="2" y="4" width="1" height="1" fill="#30c8b0"/>
<rect x="3" y="4" width="1" height="1" fill="#e8e0f8"/>
<rect x="4" y="4" width="1" height="1" fill="#e840a0"/>
<rect x="5" y="4" width="2" height="1" fill="#f0d030"/>
<rect x="7" y="4" width="1" height="1" fill="#e840a0"/>
<rect x="8" y="4" width="6" height="1" fill="#e8e0f8"/>
<rect x="14" y="4" width="1" height="1" fill="#e840a0"/>
<rect x="15" y="4" width="2" height="1" fill="#f0d030"/>
<rect x="17" y="4" width="1" height="1" fill="#e840a0"/>
<rect x="18" y="4" width="1" height="1" fill="#f0d030"/>
<rect x="19" y="4" width="2" height="1" fill="#e8e0f8"/>
<rect x="21" y="4" width="1" height="1" fill="#30c8b0"/>
<rect x="22" y="4" width="1" height="1" fill="#3828a8"/>
<rect x="1" y="5" width="1" height="1" fill="#3828a8"/>
<rect x="2" y="5" width="1" height="1" fill="#30c8b0"/>
<rect x="3" y="5" width="2" height="1" fill="#e8e0f8"/>
<rect x="5" y="5" width="3" height="1" fill="#f0d030"/>
<rect x="8" y="5" width="1" height="1" fill="#e840a0"/>
<rect x="9" y="5" width="6" height="1" fill="#e8e0f8"/>
<rect x="15" y="5" width="1" height="1" fill="#e840a0"/>
<rect x="16" y="5" width="2" height="1" fill="#f0d030"/>
<rect x="18" y="5" width="1" height="1" fill="#e840a0"/>
<rect x="19" y="5" width="1" height="1" fill="#f0d030"/>
<rect x="20" y="5" width="1" height="1" fill="#e8e0f8"/>
<rect x="21" y="5" width="1" height="1" fill="#30c8b0"/>
<rect x="22" y="5" width="1" height="1" fill="#3828a8"/>
<rect x="1" y="6" width="1" height="1" fill="#3828a8"/>
<rect x="2" y="6" width="1" height="1" fill="#30c8b0"/>
<rect x="3" y="6" width="2" height="1" fill="#e8e0f8"/>
<rect x="5" y="6" width="1" height="1" fill="#e840a0"/>
<rect x="6" y="6" width="3" height="1" fill="#f0d030"/>
<rect x="9" y="6" width="1" height="1" fill="#e840a0"/>
<rect x="10" y="6" width="6" height="1" fill="#e8e0f8"/>
<rect x="16" y="6" width="1" height="1" fill="#e840a0"/>
<rect x="17" y="6" width="2" height="1" fill="#f0d030"/>
<rect x="19" y="6" width="1" height="1" fill="#e840a0"/>
<rect x="20" y="6" width="1" height="1" fill="#f0d030"/>
<rect x="21" y="6" width="1" height="1" fill="#30c8b0"/>
<rect x="22" y="6" width="1" height="1" fill="#3828a8"/>
<rect x="1" y="7" width="1" height="1" fill="#3828a8"/>
<rect x="2" y="7" width="1" height="1" fill="#30c8b0"/>
<rect x="3" y="7" width="3" height="1" fill="#e8e0f8"/>
<rect x="6" y="7" width="1" height="1" fill="#e840a0"/>
<rect x="7" y="7" width="2" height="1" fill="#f0d030"/>
<rect x="9" y="7" width="1" height="1" fill="#e840a0"/>
<rect x="10" y="7" width="7" height="1" fill="#e8e0f8"/>
<rect x="17" y="7" width="1" height="1" fill="#e840a0"/>
<rect x="18" y="7" width="2" height="1" fill="#f0d030"/>
<rect x="20" y="7" width="1" height="1" fill="#e840a0"/>
<rect x="21" y="7" width="1" height="1" fill="#30c8b0"/>
<rect x="22" y="7" width="1" height="1" fill="#3828a8"/>
<rect x="1" y="8" width="1" height="1" fill="#3828a8"/>
<rect x="2" y="8" width="1" height="1" fill="#30c8b0"/>
<rect x="3" y="8" width="4" height="1" fill="#e8e0f8"/>
<rect x="7" y="8" width="1" height="1" fill="#e840a0"/>
<rect x="8" y="8" width="2" height="1" fill="#f0d030"/>
<rect x="10" y="8" width="1" height="1" fill="#e840a0"/>
<rect x="11" y="8" width="7" height="1" fill="#e8e0f8"/>
<rect x="18" y="8" width="1" height="1" fill="#e840a0"/>
<rect x="19" y="8" width="3" height="1" fill="#f0d030"/>
<rect x="22" y="8" width="1" height="1" fill="#3828a8"/>
<rect x="1" y="9" width="1" height="1" fill="#3828a8"/>
<rect x="2" y="9" width="1" height="1" fill="#30c8b0"/>
<rect x="3" y="9" width="4" height="1" fill="#e8e0f8"/>
<rect x="7" y="9" width="1" height="1" fill="#e840a0"/>
<rect x="8" y="9" width="3" height="1" fill="#f0d030"/>
<rect x="11" y="9" width="1" height="1" fill="#e840a0"/>
<rect x="12" y="9" width="1" height="1" fill="#e8e0f8"/>
<rect x="13" y="9" width="1" height="1" fill="#30c8b0"/>
<rect x="14" y="9" width="4" height="1" fill="#e8e0f8"/>
<rect x="18" y="9" width="2" height="1" fill="#e840a0"/>
<rect x="20" y="9" width="1" height="1" fill="#f0d030"/>
<rect x="21" y="9" width="1" height="1" fill="#e840a0"/>
<rect x="22" y="9" width="1" height="1" fill="#3828a8"/>
<rect x="1" y="10" width="1" height="1" fill="#3828a8"/>
<rect x="2" y="10" width="1" height="1" fill="#30c8b0"/>
<rect x="3" y="10" width="5" height="1" fill="#e8e0f8"/>
<rect x="8" y="10" width="1" height="1" fill="#e840a0"/>
<rect x="9" y="10" width="2" height="1" fill="#f0d030"/>
<rect x="11" y="10" width="1" height="1" fill="#e840a0"/>
<rect x="12" y="10" width="1" height="1" fill="#30c8b0"/>
<rect x="13" y="10" width="6" height="1" fill="#e8e0f8"/>
<rect x="19" y="10" width="2" height="1" fill="#e840a0"/>
<rect x="21" y="10" width="1" height="1" fill="#f0d030"/>
<rect x="22" y="10" width="1" height="1" fill="#3828a8"/>
<rect x="1" y="11" width="1" height="1" fill="#3828a8"/>
<rect x="2" y="11" width="1" height="1" fill="#30c8b0"/>
<rect x="3" y="11" width="6" height="1" fill="#e8e0f8"/>
<rect x="9" y="11" width="1" height="1" fill="#e840a0"/>
<rect x="10" y="11" width="1" height="1" fill="#f0d030"/>
<rect x="11" y="11" width="2" height="1" fill="#3828a8"/>
<rect x="13" y="11" width="2" height="1" fill="#30c8b0"/>
<rect x="15" y="11" width="5" height="1" fill="#e8e0f8"/>
<rect x="20" y="11" width="1" height="1" fill="#e840a0"/>
<rect x="21" y="11" width="1" height="1" fill="#f0d030"/>
<rect x="22" y="11" width="1" height="1" fill="#3828a8"/>
<rect x="1" y="12" width="1" height="1" fill="#3828a8"/>
<rect x="2" y="12" width="1" height="1" fill="#30c8b0"/>
<rect x="3" y="12" width="5" height="1" fill="#e8e0f8"/>
<rect x="8" y="12" width="2" height="1" fill="#30c8b0"/>
<rect x="10" y="12" width="1" height="1" fill="#e840a0"/>
<rect x="11" y="12" width="2" height="1" fill="#3828a8"/>
<rect x="13" y="12" width="1" height="1" fill="#f0d030"/>
<rect x="14" y="12" width="1" height="1" fill="#e840a0"/>
<rect x="15" y="12" width="6" height="1" fill="#e8e0f8"/>
<rect x="21" y="12" width="1" height="1" fill="#e840a0"/>
<rect x="22" y="12" width="1" height="1" fill="#3828a8"/>
<rect x="1" y="13" width="1" height="1" fill="#3828a8"/>
<rect x="2" y="13" width="1" height="1" fill="#e840a0"/>
<rect x="3" y="13" width="7" height="1" fill="#e8e0f8"/>
<rect x="10" y="13" width="2" height="1" fill="#30c8b0"/>
<rect x="12" y="13" width="1" height="1" fill="#e840a0"/>
<rect x="13" y="13" width="2" height="1" fill="#f0d030"/>
<rect x="15" y="13" width="1" height="1" fill="#e840a0"/>
<rect x="16" y="13" width="5" height="1" fill="#e8e0f8"/>
<rect x="21" y="13" width="1" height="1" fill="#30c8b0"/>
<rect x="22" y="13" width="1" height="1" fill="#3828a8"/>
<rect x="1" y="14" width="1" height="1" fill="#3828a8"/>
<rect x="2" y="14" width="2" height="1" fill="#e840a0"/>
<rect x="4" y="14" width="5" height="1" fill="#e8e0f8"/>
<rect x="9" y="14" width="1" height="1" fill="#30c8b0"/>
<rect x="10" y="14" width="3" height="1" fill="#e8e0f8"/>
<rect x="13" y="14" width="1" height="1" fill="#e840a0"/>
<rect x="14" y="14" width="2" height="1" fill="#f0d030"/>
<rect x="16" y="14" width="1" height="1" fill="#e840a0"/>
<rect x="17" y="14" width="4" height="1" fill="#e8e0f8"/>
<rect x="21" y="14" width="1" height="1" fill="#30c8b0"/>
<rect x="22" y="14" width="1" height="1" fill="#3828a8"/>
<rect x="1" y="15" width="1" height="1" fill="#3828a8"/>
<rect x="2" y="15" width="1" height="1" fill="#e840a0"/>
<rect x="3" y="15" width="1" height="1" fill="#f0d030"/>
<rect x="4" y="15" width="1" height="1" fill="#e840a0"/>
<rect x="5" y="15" width="8" height="1" fill="#e8e0f8"/>
<rect x="13" y="15" width="2" height="1" fill="#e840a0"/>
<rect x="15" y="15" width="2" height="1" fill="#f0d030"/>
<rect x="17" y="15" width="1" height="1" fill="#e840a0"/>
<rect x="18" y="15" width="3" height="1" fill="#e8e0f8"/>
<rect x="21" y="15" width="1" height="1" fill="#30c8b0"/>
<rect x="22" y="15" width="1" height="1" fill="#3828a8"/>
<rect x="1" y="16" width="1" height="1" fill="#3828a8"/>
<rect x="2" y="16" width="1" height="1" fill="#30c8b0"/>
<rect x="3" y="16" width="2" height="1" fill="#f0d030"/>
<rect x="5" y="16" width="1" height="1" fill="#e840a0"/>
<rect x="6" y="16" width="8" height="1" fill="#e8e0f8"/>
<rect x="14" y="16" width="2" height="1" fill="#e840a0"/>
<rect x="16" y="16" width="1" height="1" fill="#f0d030"/>
<rect x="17" y="16" width="1" height="1" fill="#e840a0"/>
<rect x="18" y="16" width="3" height="1" fill="#e8e0f8"/>
<rect x="21" y="16" width="1" height="1" fill="#30c8b0"/>
<rect x="22" y="16" width="1" height="1" fill="#3828a8"/>
<rect x="1" y="17" width="1" height="1" fill="#3828a8"/>
<rect x="2" y="17" width="1" height="1" fill="#30c8b0"/>
<rect x="3" y="17" width="1" height="1" fill="#e840a0"/>
<rect x="4" y="17" width="2" height="1" fill="#f0d030"/>
<rect x="6" y="17" width="1" height="1" fill="#e840a0"/>
<rect x="7" y="17" width="7" height="1" fill="#e8e0f8"/>
<rect x="14" y="17" width="2" height="1" fill="#e840a0"/>
<rect x="16" y="17" width="1" height="1" fill="#f0d030"/>
<rect x="17" y="17" width="1" height="1" fill="#e840a0"/>
<rect x="18" y="17" width="3" height="1" fill="#e8e0f8"/>
<rect x="21" y="17" width="1" height="1" fill="#30c8b0"/>
<rect x="22" y="17" width="1" height="1" fill="#3828a8"/>
<rect x="1" y="18" width="1" height="1" fill="#3828a8"/>
<rect x="2" y="18" width="1" height="1" fill="#30c8b0"/>
<rect x="3" y="18" width="1" height="1" fill="#e8e0f8"/>
<rect x="4" y="18" width="1" height="1" fill="#e840a0"/>
<rect x="5" y="18" width="2" height="1" fill="#f0d030"/>
<rect x="7" y="18" width="1" height="1" fill="#e840a0"/>
<rect x="8" y="18" width="7" height="1" fill="#e8e0f8"/>
<rect x="15" y="18" width="1" height="1" fill="#e840a0"/>
<rect x="16" y="18" width="1" height="1" fill="#f0d030"/>
<rect x="17" y="18" width="1" height="1" fill="#e840a0"/>
<rect x="18" y="18" width="3" height="1" fill="#e8e0f8"/>
<rect x="21" y="18" width="1" height="1" fill="#30c8b0"/>
<rect x="22" y="18" width="1" height="1" fill="#3828a8"/>
<rect x="1" y="19" width="1" height="1" fill="#3828a8"/>
<rect x="2" y="19" width="1" height="1" fill="#30c8b0"/>
<rect x="3" y="19" width="2" height="1" fill="#e8e0f8"/>
<rect x="5" y="19" width="1" height="1" fill="#e840a0"/>
<rect x="6" y="19" width="2" height="1" fill="#f0d030"/>
<rect x="8" y="19" width="1" height="1" fill="#e840a0"/>
<rect x="9" y="19" width="6" height="1" fill="#e8e0f8"/>
<rect x="15" y="19" width="1" height="1" fill="#e840a0"/>
<rect x="16" y="19" width="2" height="1" fill="#f0d030"/>
<rect x="18" y="19" width="1" height="1" fill="#e840a0"/>
<rect x="19" y="19" width="2" height="1" fill="#e8e0f8"/>
<rect x="21" y="19" width="1" height="1" fill="#30c8b0"/>
<rect x="22" y="19" width="1" height="1" fill="#3828a8"/>
<rect x="0" y="20" width="1" height="1" fill="#3828a8"/>
<rect x="1" y="20" width="2" height="1" fill="#30c8b0"/>
<rect x="3" y="20" width="3" height="1" fill="#e8e0f8"/>
<rect x="6" y="20" width="1" height="1" fill="#e840a0"/>
<rect x="7" y="20" width="3" height="1" fill="#f0d030"/>
<rect x="10" y="20" width="5" height="1" fill="#e8e0f8"/>
<rect x="15" y="20" width="1" height="1" fill="#e840a0"/>
<rect x="16" y="20" width="2" height="1" fill="#f0d030"/>
<rect x="18" y="20" width="1" height="1" fill="#e840a0"/>
<rect x="19" y="20" width="3" height="1" fill="#e8e0f8"/>
<rect x="22" y="20" width="1" height="1" fill="#30c8b0"/>
<rect x="23" y="20" width="1" height="1" fill="#3828a8"/>
<rect x="0" y="21" width="1" height="1" fill="#3828a8"/>
<rect x="1" y="21" width="3" height="1" fill="#e8e0f8"/>
<rect x="4" y="21" width="3" height="1" fill="#30c8b0"/>
<rect x="7" y="21" width="2" height="1" fill="#e840a0"/>
<rect x="9" y="21" width="2" height="1" fill="#f0d030"/>
<rect x="11" y="21" width="4" height="1" fill="#30c8b0"/>
<rect x="15" y="21" width="1" height="1" fill="#e840a0"/>
<rect x="16" y="21" width="2" height="1" fill="#f0d030"/>
<rect x="18" y="21" width="1" height="1" fill="#e840a0"/>
<rect x="19" y="21" width="1" height="1" fill="#30c8b0"/>
<rect x="20" y="21" width="3" height="1" fill="#e8e0f8"/>
<rect x="23" y="21" width="1" height="1" fill="#3828a8"/>
<rect x="0" y="22" width="1" height="1" fill="#3828a8"/>
<rect x="1" y="22" width="2" height="1" fill="#e8e0f8"/>
<rect x="3" y="22" width="1" height="1" fill="#30c8b0"/>
<rect x="4" y="22" width="16" height="1" fill="#3828a8"/>
<rect x="20" y="22" width="1" height="1" fill="#30c8b0"/>
<rect x="21" y="22" width="2" height="1" fill="#e8e0f8"/>
<rect x="23" y="22" width="1" height="1" fill="#3828a8"/>
<rect x="1" y="23" width="3" height="1" fill="#3828a8"/>
<rect x="20" y="23" width="3" height="1" fill="#3828a8"/>
</svg>