<?xml version="1.0" encoding="UTF-8"?>
<svg xmlns="http://www.w3.org/2000/svg" viewBox="0 0 24 24" width="24" height="24" shape-rendering="crispEdges">
<rect x="2" y="1" width="9" height="1" fill="#3828a8"/>
<rect x="13" y="1" width="9" height="1" fill="#3828a8"/>
<rect x="1" y="2" width="1" height="1" fill="#3828a8"/>
<rect x="2" y="2" width="1" height="1" fill="#1a9e8a"/>
<rect x="3" y="2" width="7" height="1" fill="#eaf8f6"/>
<rect x="10" y="2" width="1" height="1" fill="#d0f0ec"/>
<rect x="11" y="2" width="2" height="1" fill="#3828a8"/>
<rect x="13" y="2" width="1" height="1" fill="#d0f0ec"/>
<rect x="14" y="2" width="7" height="1" fill="#eaf8f6"/>
<rect x="21" y="2" width="1" height="1" fill="#1a9e8a"/>
<rect x="22" y="2" width="1" height="1" fill="#3828a8"/>
<rect x="0" y="3" width="1" height="1" fill="#3828a8"/>
<rect x="1" y="3" width="1" height="1" fill="#d0f0ec"/>
<rect x="2" y="3" width="1" height="1" fill="#1a9e8a"/>
<rect x="3" y="3" width="1" height="1" fill="#eaf8f6"/>
<rect x="4" y="3" width="1" height="1" fill="#d0f0ec"/>
<rect x="5" y="3" width="1" height="1" fill="#eaf8f6"/>
<rect x="6" y="3" width="3" height="1" fill="#d0f0ec"/>
<rect x="9" y="3" width="1" height="1" fill="#eaf8f6"/>
<rect x="10" y="3" width="1" height="1" fill="#d0f0ec"/>
<rect x="11" y="3" width="1" height="1" fill="#58e890"/>
<rect x="12" y="3" width="1" height="1" fill="#3828a8"/>
<rect x="13" y="3" width="1" height="1" fill="#d0f0ec"/>
<rect x="14" y="3" width="1" height="1" fill="#eaf8f6"/>
<rect x="15" y="3" width="3" height="1" fill="#d0f0ec"/>
<rect x="18" y="3" width="1" height="1" fill="#eaf8f6"/>
<rect x="19" y="3" width="1" height="1" fill="#d0f0ec"/>
<rect x="20" y="3" width="1" height="1" fill="#eaf8f6"/>
<rect x="21" y="3" width="1" height="1" fill="#1a9e8a"/>
<rect x="22" y="3" width="1" height="1" fill="#d0f0ec"/>
<rect x="23" y="3" width="1" height="1" fill="#3828a8"/>
<rect x="0" y="4" width="1" height="1" fill="#3828a8"/>
<rect x="1" y="4" width="1" height="1" fill="#eaf8f6"/>
<rect x="2" y="4" width="1" height="1" fill="#1a9e8a"/>
<rect x="3" y="4" width="7" height="1" fill="#eaf8f6"/>
<rect x="10" y="4" width="1" height="1" fill="#d0f0ec"/>
<rect x="11" y="4" width="1" height="1" fill="#58e890"/>
<rect x="12" y="4" width="1" height="1" fill="#3828a8"/>
<rect x="13" y="4" width="1" height="1" fill="#d0f0ec"/>
<rect x="14" y="4" width="7" height="1" fill="#eaf8f6"/>
<rect x="21" y="4" width="1" height="1" fill="#1a9e8a"/>
<rect x="22" y="4" width="1" height="1" fill="#eaf8f6"/>
<rect x="23" y="4" width="1" height="1" fill="#3828a8"/>
<rect x="0" y="5" width="1" height="1" fill="#3828a8"/>
<rect x="1" y="5" width="1" height="1" fill="#eaf8f6"/>
<rect x="2" y="5" width="1" height="1" fill="#1a9e8a"/>
<rect x="3" y="5" width="7" height="1" fill="#eaf8f6"/>
<rect x="10" y="5" width="1" height="1" fill="#d0f0ec"/>
<rect x="11" y="5" width="1" height="1" fill="#58e890"/>
<rect x="12" y="5" width="1" height="1" fill="#3828a8"/>
<rect x="13" y="5" width="1" height="1" fill="#d0f0ec"/>
<rect x="14" y="5" width="7" height="1" fill="#eaf8f6"/>
<rect x="21" y="5" width="1" height="1" fill="#1a9e8a"/>
<rect x="22" y="5" width="1" height="1" fill="#eaf8f6"/>
<rect x="23" y="5" width="1" height="1" fill="#3828a8"/>
<rect x="0" y="6" width="1" height="1" fill="#3828a8"/>
<rect x="1" y="6" width="1" height="1" fill="#d0f0ec"/>
<rect x="2" y="6" width="1" height="1" fill="#1a9e8a"/>
<rect x="3" y="6" width="2" height="1" fill="#eaf8f6"/>
<rect x="5" y="6" width="1" height="1" fill="#d0f0ec"/>
<rect x="6" y="6" width="1" height="1" fill="#eaf8f6"/>
<rect x="7" y="6" width="1" height="1" fill="#d0f0ec"/>
<rect x="8" y="6" width="2" height="1" fill="#eaf8f6"/>
<rect x="10" y="6" width="1" height="1" fill="#d0f0ec"/>
<rect x="11" y="6" width="1" height="1" fill="#58e890"/>
<rect x="12" y="6" width="1" height="1" fill="#3828a8"/>
<rect x="13" y="6" width="1" height="1" fill="#d0f0ec"/>
<rect x="14" y="6" width="1" height="1" fill="#eaf8f6"/>
<rect x="15" y="6" width="1" height="1" fill="#d0f0ec"/>
<rect x="16" y="6" width="1" height="1" fill="#eaf8f6"/>
<rect x="17" y="6" width="2" height="1" fill="#d0f0ec"/>
<rect x="19" y="6" width="2" height="1" fill="#eaf8f6"/>
<rect x="21" y="6" width="1" height="1" fill="#1a9e8a"/>
<rect x="22" y="6" width="1" height="1" fill="#d0f0ec"/>
<rect x="23" y="6" width="1" height="1" fill="#3828a8"/>
<rect x="0" y="7" width="1" height="1" fill="#3828a8"/>
<rect x="1" y="7" width="1" height="1" fill="#eaf8f6"/>
<rect x="2" y="7" width="1" height="1" fill="#1a9e8a"/>
<rect x="3" y="7" width="7" height="1" fill="#eaf8f6"/>
<rect x="10" y="7" width="1" height="1" fill="#d0f0ec"/>
<rect x="11" y="7" width="1" height="1" fill="#58e890"/>
<rect x="12" y="7" width="1" height="1" fill="#3828a8"/>
<rect x="13" y="7" width="1" height="1" fill="#d0f0ec"/>
<rect x="14" y="7" width="7" height="1" fill="#eaf8f6"/>
<rect x="21" y="7" width="1" height="1" fill="#1a9e8a"/>
<rect x="22" y="7" width="1" height="1" fill="#d0f0ec"/>
<rect x="23" y="7" width="1" height="1" fill="#3828a8"/>
<rect x="0" y="8" width="1" height="1" fill="#3828a8"/>
<rect x="1" y="8" width="1" height="1" fill="#d0f0ec"/>
<rect x="2" y="8" width="1" height="1" fill="#1a9e8a"/>
<rect x="3" y="8" width="1" height="1" fill="#eaf8f6"/>
<rect x="4" y="8" width="1" height="1" fill="#d0f0ec"/>
<rect x="5" y="8" width="1" height="1" fill="#eaf8f6"/>
<rect x="6" y="8" width="2" height="1" fill="#d0f0ec"/>
<rect x="8" y="8" width="2" height="1" fill="#eaf8f6"/>
<rect x="10" y="8" width="1" height="1" fill="#d0f0ec"/>
<rect x="11" y="8" width="1" height="1" fill="#58e890"/>
<rect x="12" y="8" width="1" height="1" fill="#3828a8"/>
<rect x="13" y="8" width="1" height="1" fill="#d0f0ec"/>
<rect x="14" y="8" width="1" height="1" fill="#eaf8f6"/>
<rect x="15" y="8" width="3" height="1" fill="#d0f0ec"/>
<rect x="18" y="8" width="1" height="1" fill="#eaf8f6"/>
<rect x="19" y="8" width="1" height="1" fill="#d0f0ec"/>
<rect x="20" y="8" width="1" height="1" fill="#eaf8f6"/>
<rect x="21" y="8" width="1" height="1" fill="#1a9e8a"/>
<rect x="22" y="8" width="1" height="1" fill="#d0f0ec"/>
<rect x="23" y="8" width="1" height="1" fill="#3828a8"/>
<rect x="0" y="9" width="1" height="1" fill="#3828a8"/>
<rect x="1" y="9" width="1" height="1" fill="#d0f0ec"/>
<rect x="2" y="9" width="1" height="1" fill="#1a9e8a"/>
<rect x="3" y="9" width="2" height="1" fill="#eaf8f6"/>
<rect x="5" y="9" width="1" height="1" fill="#d0f0ec"/>
<rect x="6" y="9" width="2" height="1" fill="#eaf8f6"/>
<rect x="8" y="9" width="1" height="1" fill="#d0f0ec"/>
<rect x="9" y="9" width="1" height="1" fill="#eaf8f6"/>
<rect x="10" y="9" width="1" height="1" fill="#d0f0ec"/>
<rect x="11" y="9" width="1" height="1" fill="#58e890"/>
<rect x="12" y="9" width="1" height="1" fill="#3828a8"/>
<rect x="13" y="9" width="1" height="1" fill="#d0f0ec"/>
<rect x="14" y="9" width="7" height="1" fill="#eaf8f6"/>
<rect x="21" y="9" width="1" height="1" fill="#1a9e8a"/>
<rect x="22" y="9" width="1" height="1" fill="#d0f0ec"/>
<rect x="23" y="9" width="1" height="1" fill="#3828a8"/>
<rect x="0" y="10" width="1" height="1" fill="#3828a8"/>
<rect x="1" y="10" width="1" height="1" fill="#d0f0ec"/>
<rect x="2" y="10" width="1" height="1" fill="#1a9e8a"/>
<rect x="3" y="10" width="7" height="1" fill="#eaf8f6"/>
<rect x="10" y="10" width="1" height="1" fill="#d0f0ec"/>
<rect x="11" y="10" width="1" height="1" fill="#58e890"/>
<rect x="12" y="10" width="1" height="1" fill="#3828a8"/>
<rect x="13" y="10" width="1" height="1" fill="#d0f0ec"/>
<rect x="14" y="10" width="7" height="1" fill="#eaf8f6"/>
<rect x="21" y="10" width="1" height="1" fill="#1a9e8a"/>
<rect x="22" y="10" width="1" height="1" fill="#d0f0ec"/>
<rect x="23" y="10" width="1" height="1" fill="#3828a8"/>
<rect x="0" y="11" width="1" height="1" fill="#3828a8"/>
<rect x="1" y="11" width="1" height="1" fill="#d0f0ec"/>
<rect x="2" y="11" width="1" height="1" fill="#1a9e8a"/>
<rect x="3" y="11" width="7" height="1" fill="#eaf8f6"/>
<rect x="10" y="11" width="1" height="1" fill="#d0f0ec"/>
<rect x="11" y="11" width="1" height="1" fill="#58e890"/>
<rect x="12" y="11" width="1" height="1" fill="#080818"/>
<rect x="13" y="11" width="1" height="1" fill="#d0f0ec"/>
<rect x="14" y="11" width="7" height="1" fill="#eaf8f6"/>
<rect x="21" y="11" width="1" height="1" fill="#1a9e8a"/>
<rect x="22" y="11" width="1" height="1" fill="#d0f0ec"/>
<rect x="23" y="11" width="1" height="1" fill="#3828a8"/>
<rect x="0" y="12" width="1" height="1" fill="#3828a8"/>
<rect x="1" y="12" width="1" height="1" fill="#d0f0ec"/>
<rect x="2" y="12" width="1" height="1" fill="#1a9e8a"/>
<rect x="3" y="12" width="7" height="1" fill="#eaf8f6"/>
<rect x="10" y="12" width="1" height="1" fill="#d0f0ec"/>
<rect x="11" y="12" width="1" height="1" fill="#58e890"/>
<rect x="12" y="12" width="1" height="1" fill="#3828a8"/>
<rect x="13" y="12" width="1" height="1" fill="#d0f0ec"/>
<rect x="14" y="12" width="7" height="1" fill="#eaf8f6"/>
<rect x="21" y="12" width="1" height="1" fill="#1a9e8a"/>
<rect x="22" y="12" width="1" height="1" fill="#d0f0ec"/>
<rect x="23" y="12" width="1" height="1" fill="#3828a8"/>
<rect x="0" y="13" width="1" height="1" fill="#3828a8"/>
<rect x="1" y="13" width="1" height="1" fill="#d0f0ec"/>
<rect x="2" y="13" width="1" height="1" fill="#1a9e8a"/>
<rect x="3" y="13" width="7" height="1" fill="#eaf8f6"/>
<rect x="10" y="13" width="1" height="1" fill="#d0f0ec"/>
<rect x="11" y="13" width="1" height="1" fill="#58e890"/>
<rect x="12" y="13" width="1" height="1" fill="#3828a8"/>
<rect x="13" y="13" width="1" height="1" fill="#d0f0ec"/>
<rect x="14" y="13" width="7" height="1" fill="#eaf8f6"/>
<rect x="21" y="13" width="1" height="1" fill="#1a9e8a"/>
<rect x="22" y="13" width="1" height="1" fill="#d0f0ec"/>
<rect x="23" y="13" width="1" height="1" fill="#3828a8"/>
<rect x="0" y="14" width="1" height="1" fill="#3828a8"/>
<rect x="1" y="14" width="1" height="1" fill="#d0f0ec"/>
<rect x="2" y="14" width="1" height="1" fill="#1a9e8a"/>
<rect x="3" y="14" width="7" height="1" fill="#eaf8f6"/>
<rect x="10" y="14" width="1" height="1" fill="#d0f0ec"/>
<rect x="11" y="14" width="1" height="1" fill="#58e890"/>
<rect x="12" y="14" width="1" height="1" fill="#3828a8"/>
<rect x="13" y="14" width="1" height="1" fill="#d0f0ec"/>
<rect x="14" y="14" width="7" height="1" fill="#eaf8f6"/>
<rect x="21" y="14" width="1" height="1" fill="#1a9e8a"/>
<rect x="22" y="14" width="1" height="1" fill="#d0f0ec"/>
<rect x="23" y="14" width="1" height="1" fill="#3828a8"/>
<rect x="0" y="15" width="1" height="1" fill="#3828a8"/>
<rect x="1" y="15" width="1" height="1" fill="#d0f0ec"/>
<rect x="2" y="15" width="1" height="1" fill="#1a9e8a"/>
<rect x="3" y="15" width="7" height="1" fill="#eaf8f6"/>
<rect x="10" y="15" width="1" height="1" fill="#d0f0ec"/>
<rect x="11" y="15" width="1" height="1" fill="#58e890"/>
<rect x="12" y="15" width="1" height="1" fill="#3828a8"/>
<rect x="13" y="15" width="1" height="1" fill="#d0f0ec"/>
<rect x="14" y="15" width="7" height="1" fill="#eaf8f6"/>
<rect x="21" y="15" width="1" height="1" fill="#1a9e8a"/>
<rect x="22" y="15" width="1" height="1" fill="#d0f0ec"/>
<rect x="23" y="15" width="1" height="1" fill="#3828a8"/>
<rect x="0" y="16" width="1" height="1" fill="#3828a8"/>
<rect x="1" y="16" width="1" height="1" fill="#d0f0ec"/>
<rect x="2" y="16" width="1" height="1" fill="#1a9e8a"/>
<rect x="3" y="16" width="7" height="1" fill="#eaf8f6"/>
<rect x="10" y="16" width="1" height="1" fill="#d0f0ec"/>
<rect x="11" y="16" width="1" height="1" fill="#58e890"/>
<rect x="12" y="16" width="1" height="1" fill="#3828a8"/>
<rect x="13" y="16" width="1" height="1" fill="#d0f0ec"/>
<rect x="14" y="16" width="7" height="1" fill="#eaf8f6"/>
<rect x="21" y="16" width="1" height="1" fill="#1a9e8a"/>
<rect x="22" y="16" width="1" height="1" fill="#eaf8f6"/>
<rect x="23" y="16" width="1" height="1" fill="#3828a8"/>
<rect x="0" y="17" width="1" height="1" fill="#3828a8"/>
<rect x="1" y="17" width="1" height="1" fill="#eaf8f6"/>
<rect x="2" y="17" width="1" height="1" fill="#1a9e8a"/>
<rect x="3" y="17" width="7" height="1" fill="#eaf8f6"/>
<rect x="10" y="17" width="1" height="1" fill="#d0f0ec"/>
<rect x="11" y="17" width="1" height="1" fill="#58e890"/>
<rect x="12" y="17" width="1" height="1" fill="#3828a8"/>
<rect x="13" y="17" width="1" height="1" fill="#d0f0ec"/>
<rect x="14" y="17" width="6" height="1" fill="#eaf8f6"/>
<rect x="20" y="17" width="1" height="1" fill="#d0f0ec"/>
<rect x="21" y="17" width="1" height="1" fill="#1a9e8a"/>
<rect x="22" y="17" width="1" height="1" fill="#eaf8f6"/>
<rect x="23" y="17" width="1" height="1" fill="#3828a8"/>
<rect x="0" y="18" width="1" height="1" fill="#3828a8"/>
<rect x="1" y="18" width="1" height="1" fill="#d0f0ec"/>
<rect x="2" y="18" width="1" height="1" fill="#1a9e8a"/>
<rect x="3" y="18" width="7" height="1" fill="#eaf8f6"/>
<rect x="10" y="18" width="1" height="1" fill="#d0f0ec"/>
<rect x="11" y="18" width="1" height="1" fill="#58e890"/>
<rect x="12" y="18" width="1" height="1" fill="#3828a8"/>
<rect x="13" y="18" width="1" height="1" fill="#d0f0ec"/>
<rect x="14" y="18" width="5" height="1" fill="#eaf8f6"/>
<rect x="19" y="18" width="1" height="1" fill="#d0f0ec"/>
<rect x="20" y="18" width="1" height="1" fill="#eaf8f6"/>
<rect x="21" y="18" width="1" height="1" fill="#1a9e8a"/>
<rect x="22" y="18" width="1" height="1" fill="#d0f0ec"/>
<rect x="23" y="18" width="1" height="1" fill="#3828a8"/>
<rect x="0" y="19" width="1" height="1" fill="#3828a8"/>
<rect x="1" y="19" width="1" height="1" fill="#d0f0ec"/>
<rect x="2" y="19" width="1" height="1" fill="#1a9e8a"/>
<rect x="3" y="19" width="7" height="1" fill="#eaf8f6"/>
<rect x="10" y="19" width="1" height="1" fill="#d0f0ec"/>
<rect x="11" y="19" width="1" height="1" fill="#58e890"/>
<rect x="12" y="19" width="1" height="1" fill="#3828a8"/>
<rect x="13" y="19" width="1" height="1" fill="#d0f0ec"/>
<rect x="14" y="19" width="7" height="1" fill="#eaf8f6"/>
<rect x="21" y="19" width="1" height="1" fill="#1a9e8a"/>
<rect x="22" y="19" width="1" height="1" fill="#d0f0ec"/>
<rect x="23" y="19" width="1" height="1" fill="#3828a8"/>
<rect x="0" y="20" width="1" height="1" fill="#3828a8"/>
<rect x="1" y="20" width="1" height="1" fill="#d0f0ec"/>
<rect x="2" y="20" width="8" height="1" fill="#1a9e8a"/>
<rect x="10" y="20" width="1" height="1" fill="#d0f0ec"/>
<rect x="11" y="20" width="1" height="1" fill="#58e890"/>
<rect x="12" y="20" width="1" height="1" fill="#3828a8"/>
<rect x="13" y="20" width="1" height="1" fill="#d0f0ec"/>
<rect x="14" y="20" width="8" height="1" fill="#1a9e8a"/>
<rect x="22" y="20" width="1" height="1" fill="#d0f0ec"/>
<rect x="23" y="20" width="1" height="1" fill="#3828a8"/>
<rect x="0" y="21" width="1" height="1" fill="#3828a8"/>
<rect x="1" y="21" width="1" height="1" fill="#eaf8f6"/>
<rect x="2" y="21" width="8" height="1" fill="#d0f0ec"/>
<rect x="10" y="21" width="1" height="1" fill="#1a9e8a"/>
<rect x="11" y="21" width="1" height="1" fill="#58e890"/>
<rect x="12" y="21" width="1" height="1" fill="#3828a8"/>
<rect x="13" y="21" width="1" height="1" fill="#1a9e8a"/>
<rect x="14" y="21" width="8" height="1" fill="#d0f0ec"/>
<rect x="22" y="21" width="1" height="1" fill="#eaf8f6"/>
<rect x="23" y="21" width="1" height="1" fill="#3828a8"/>
<rect x="0" y="22" width="10" height="1" fill="#3828a8"/>
<rect x="10" y="22" width="1" height="1" fill="#080818"/>
<rect x="11" y="22" width="1" height="1" fill="#58e890"/>
<rect x="12" y="22" width="2" height="1" fill="#080818"/>
<rect x="14" y="22" width="10" height="1" fill="#3828a8"/>
<rect x="11" y="23" width="1" height="1" fill="#58e890"/>
</svg>