<?xml version="1.0" encoding="UTF-8"?>
<svg xmlns="http://www.w3.org/2000/svg" viewBox="0 0 24 24" width="24" height="24" shape-rendering="crispEdges">
<rect x="5" y="0" width="3" height="1" fill="#3828a8"/>
<rect x="8" y="0" width="3" height="1" fill="#080818"/>
<rect x="19" y="0" width="3" height="1" fill="#3828a8"/>
<rect x="22" y="0" width="2" height="1" fill="#080818"/>
<rect x="3" y="1" width="2" height="1" fill="#3828a8"/>
<rect x="5" y="1" width="1" height="1" fill="#1a9e8a"/>
<rect x="6" y="1" width="2" height="1" fill="#58e890"/>
<rect x="8" y="1" width="3" height="1" fill="#1a9e8a"/>
<rect x="11" y="1" width="3" height="1" fill="#080818"/>
<rect x="16" y="1" width="3" height="1" fill="#3828a8"/>
<rect x="19" y="1" width="1" height="1" fill="#1a9e8a"/>
<rect x="20" y="1" width="3" height="1" fill="#58e890"/>
<rect x="23" y="1" width="1" height="1" fill="#080818"/>
<rect x="1" y="2" width="2" height="1" fill="#3828a8"/>
<rect x="3" y="2" width="1" height="1" fill="#1a9e8a"/>
<rect x="4" y="2" width="1" height="1" fill="#58e890"/>
<rect x="5" y="2" width="2" height="1" fill="#d0f0ec"/>
<rect x="7" y="2" width="1" height="1" fill="#58e890"/>
<rect x="8" y="2" width="4" height="1" fill="#30c8b0"/>
<rect x="12" y="2" width="2" height="1" fill="#1a9e8a"/>
<rect x="14" y="2" width="1" height="1" fill="#080818"/>
<rect x="15" y="2" width="1" height="1" fill="#3828a8"/>
<rect x="16" y="2" width="2" height="1" fill="#1a9e8a"/>
<rect x="18" y="2" width="1" height="1" fill="#58e890"/>
<rect x="19" y="2" width="3" height="1" fill="#d0f0ec"/>
<rect x="22" y="2" width="1" height="1" fill="#58e890"/>
<rect x="23" y="2" width="1" height="1" fill="#080818"/>
<rect x="0" y="3" width="1" height="1" fill="#3828a8"/>
<rect x="1" y="3" width="1" height="1" fill="#1a9e8a"/>
<rect x="2" y="3" width="1" height="1" fill="#58e890"/>
<rect x="3" y="3" width="4" height="1" fill="#d0f0ec"/>
<rect x="7" y="3" width="1" height="1" fill="#58e890"/>
<rect x="8" y="3" width="5" height="1" fill="#30c8b0"/>
<rect x="13" y="3" width="1" height="1" fill="#58e890"/>
<rect x="14" y="3" width="2" height="1" fill="#1a9e8a"/>
<rect x="16" y="3" width="1" height="1" fill="#58e890"/>
<rect x="17" y="3" width="5" height="1" fill="#d0f0ec"/>
<rect x="22" y="3" width="1" height="1" fill="#58e890"/>
<rect x="23" y="3" width="1" height="1" fill="#080818"/>
<rect x="0" y="4" width="1" height="1" fill="#3828a8"/>
<rect x="1" y="4" width="1" height="1" fill="#58e890"/>
<rect x="2" y="4" width="5" height="1" fill="#d0f0ec"/>
<rect x="7" y="4" width="1" height="1" fill="#58e890"/>
<rect x="8" y="4" width="5" height="1" fill="#30c8b0"/>
<rect x="13" y="4" width="1" height="1" fill="#58e890"/>
<rect x="14" y="4" width="1" height="1" fill="#30c8b0"/>
<rect x="15" y="4" width="1" height="1" fill="#58e890"/>
<rect x="16" y="4" width="6" height="1" fill="#d0f0ec"/>
<rect x="22" y="4" width="1" height="1" fill="#58e890"/>
<rect x="23" y="4" width="1" height="1" fill="#080818"/>
<rect x="0" y="5" width="1" height="1" fill="#3828a8"/>
<rect x="1" y="5" width="1" height="1" fill="#58e890"/>
<rect x="2" y="5" width="5" height="1" fill="#d0f0ec"/>
<rect x="7" y="5" width="1" height="1" fill="#58e890"/>
<rect x="8" y="5" width="5" height="1" fill="#30c8b0"/>
<rect x="13" y="5" width="1" height="1" fill="#58e890"/>
<rect x="14" y="5" width="1" height="1" fill="#30c8b0"/>
<rect x="15" y="5" width="1" height="1" fill="#58e890"/>
<rect x="16" y="5" width="6" height="1" fill="#d0f0ec"/>
<rect x="22" y="5" width="1" height="1" fill="#58e890"/>
<rect x="23" y="5" width="1" height="1" fill="#080818"/>
<rect x="0" y="6" width="1" height="1" fill="#3828a8"/>
<rect x="1" y="6" width="1" height="1" fill="#58e890"/>
<rect x="2" y="6" width="5" height="1" fill="#d0f0ec"/>
<rect x="7" y="6" width="1" height="1" fill="#58e890"/>
<rect x="8" y="6" width="5" height="1" fill="#30c8b0"/>
<rect x="13" y="6" width="1" height="1" fill="#58e890"/>
<rect x="14" y="6" width="1" height="1" fill="#30c8b0"/>
<rect x="15" y="6" width="1" height="1" fill="#58e890"/>
<rect x="16" y="6" width="6" height="1" fill="#d0f0ec"/>
<rect x="22" y="6" width="1" height="1" fill="#58e890"/>
<rect x="23" y="6" width="1" height="1" fill="#080818"/>
<rect x="0" y="7" width="1" height="1" fill="#3828a8"/>
<rect x="1" y="7" width="1" height="1" fill="#58e890"/>
<rect x="2" y="7" width="4" height="1" fill="#d0f0ec"/>
<rect x="6" y="7" width="2" height="1" fill="#58e890"/>
<rect x="8" y="7" width="5" height="1" fill="#30c8b0"/>
<rect x="13" y="7" width="1" height="1" fill="#58e890"/>
<rect x="14" y="7" width="1" height="1" fill="#30c8b0"/>
<rect x="15" y="7" width="1" height="1" fill="#58e890"/>
<rect x="16" y="7" width="6" height="1" fill="#d0f0ec"/>
<rect x="22" y="7" width="1" height="1" fill="#58e890"/>
<rect x="23" y="7" width="1" height="1" fill="#080818"/>
<rect x="0" y="8" width="1" height="1" fill="#3828a8"/>
<rect x="1" y="8" width="1" height="1" fill="#58e890"/>
<rect x="2" y="8" width="3" height="1" fill="#d0f0ec"/>
<rect x="5" y="8" width="1" height="1" fill="#58e890"/>
<rect x="6" y="8" width="2" height="1" fill="#1a9e8a"/>
<rect x="8" y="8" width="1" height="1" fill="#58e890"/>
<rect x="9" y="8" width="3" height="1" fill="#30c8b0"/>
<rect x="12" y="8" width="1" height="1" fill="#58e890"/>
<rect x="13" y="8" width="2" height="1" fill="#30c8b0"/>
<rect x="15" y="8" width="1" height="1" fill="#58e890"/>
<rect x="16" y="8" width="4" height="1" fill="#d0f0ec"/>
<rect x="20" y="8" width="1" height="1" fill="#58e890"/>
<rect x="21" y="8" width="2" height="1" fill="#1a9e8a"/>
<rect x="23" y="8" width="1" height="1" fill="#080818"/>
<rect x="0" y="9" width="1" height="1" fill="#3828a8"/>
<rect x="1" y="9" width="1" height="1" fill="#58e890"/>
<rect x="2" y="9" width="1" height="1" fill="#d0f0ec"/>
<rect x="3" y="9" width="1" height="1" fill="#58e890"/>
<rect x="4" y="9" width="2" height="1" fill="#1a9e8a"/>
<rect x="6" y="9" width="1" height="1" fill="#d0f0ec"/>
<rect x="7" y="9" width="1" height="1" fill="#58e890"/>
<rect x="8" y="9" width="1" height="1" fill="#1a9e8a"/>
<rect x="9" y="9" width="1" height="1" fill="#58e890"/>
<rect x="10" y="9" width="1" height="1" fill="#30c8b0"/>
<rect x="11" y="9" width="1" height="1" fill="#58e890"/>
<rect x="12" y="9" width="3" height="1" fill="#30c8b0"/>
<rect x="15" y="9" width="1" height="1" fill="#58e890"/>
<rect x="16" y="9" width="3" height="1" fill="#d0f0ec"/>
<rect x="19" y="9" width="1" height="1" fill="#58e890"/>
<rect x="20" y="9" width="1" height="1" fill="#1a9e8a"/>
<rect x="21" y="9" width="1" height="1" fill="#d0f0ec"/>
<rect x="22" y="9" width="1" height="1" fill="#58e890"/>
<rect x="23" y="9" width="1" height="1" fill="#080818"/>
<rect x="0" y="10" width="1" height="1" fill="#3828a8"/>
<rect x="1" y="10" width="2" height="1" fill="#58e890"/>
<rect x="3" y="10" width="1" height="1" fill="#1a9e8a"/>
<rect x="4" y="10" width="3" height="1" fill="#d0f0ec"/>
<rect x="7" y="10" width="1" height="1" fill="#58e890"/>
<rect x="8" y="10" width="1" height="1" fill="#30c8b0"/>
<rect x="9" y="10" width="1" height="1" fill="#1a9e8a"/>
<rect x="10" y="10" width="5" height="1" fill="#58e890"/>
<rect x="15" y="10" width="5" height="1" fill="#1a9e8a"/>
<rect x="20" y="10" width="2" height="1" fill="#d0f0ec"/>
<rect x="22" y="10" width="1" height="1" fill="#58e890"/>
<rect x="23" y="10" width="1" height="1" fill="#080818"/>
<rect x="0" y="11" width="1" height="1" fill="#3828a8"/>
<rect x="1" y="11" width="2" height="1" fill="#1a9e8a"/>
<rect x="3" y="11" width="4" height="1" fill="#d0f0ec"/>
<rect x="7" y="11" width="1" height="1" fill="#58e890"/>
<rect x="8" y="11" width="1" height="1" fill="#30c8b0"/>
<rect x="9" y="11" width="6" height="1" fill="#1a9e8a"/>
<rect x="15" y="11" width="1" height="1" fill="#58e890"/>
<rect x="16" y="11" width="6" height="1" fill="#d0f0ec"/>
<rect x="22" y="11" width="1" height="1" fill="#58e890"/>
<rect x="23" y="11" width="1" height="1" fill="#080818"/>
<rect x="0" y="12" width="1" height="1" fill="#3828a8"/>
<rect x="1" y="12" width="1" height="1" fill="#58e890"/>
<rect x="2" y="12" width="5" height="1" fill="#d0f0ec"/>
<rect x="7" y="12" width="1" height="1" fill="#58e890"/>
<rect x="8" y="12" width="1" height="1" fill="#1a9e8a"/>
<rect x="9" y="12" width="1" height="1" fill="#30c8b0"/>
<rect x="10" y="12" width="1" height="1" fill="#1a9e8a"/>
<rect x="11" y="12" width="4" height="1" fill="#30c8b0"/>
<rect x="15" y="12" width="1" height="1" fill="#58e890"/>
<rect x="16" y="12" width="6" height="1" fill="#d0f0ec"/>
<rect x="22" y="12" width="1" height="1" fill="#58e890"/>
<rect x="23" y="12" width="1" height="1" fill="#080818"/>
<rect x="0" y="13" width="1" height="1" fill="#3828a8"/>
<rect x="1" y="13" width="1" height="1" fill="#58e890"/>
<rect x="2" y="13" width="4" height="1" fill="#d0f0ec"/>
<rect x="6" y="13" width="1" height="1" fill="#58e890"/>
<rect x="7" y="13" width="1" height="1" fill="#1a9e8a"/>
<rect x="8" y="13" width="3" height="1" fill="#30c8b0"/>
<rect x="11" y="13" width="1" height="1" fill="#1a9e8a"/>
<rect x="12" y="13" width="3" height="1" fill="#30c8b0"/>
<rect x="15" y="13" width="1" height="1" fill="#58e890"/>
<rect x="16" y="13" width="5" height="1" fill="#d0f0ec"/>
<rect x="21" y="13" width="1" height="1" fill="#1a9e8a"/>
<rect x="22" y="13" width="1" height="1" fill="#58e890"/>
<rect x="23" y="13" width="1" height="1" fill="#080818"/>
<rect x="0" y="14" width="1" height="1" fill="#3828a8"/>
<rect x="1" y="14" width="1" height="1" fill="#58e890"/>
<rect x="2" y="14" width="3" height="1" fill="#d0f0ec"/>
<rect x="5" y="14" width="1" height="1" fill="#58e890"/>
<rect x="6" y="14" width="1" height="1" fill="#1a9e8a"/>
<rect x="7" y="14" width="1" height="1" fill="#58e890"/>
<rect x="8" y="14" width="4" height="1" fill="#30c8b0"/>
<rect x="12" y="14" width="1" height="1" fill="#1a9e8a"/>
<rect x="13" y="14" width="2" height="1" fill="#30c8b0"/>
<rect x="15" y="14" width="1" height="1" fill="#58e890"/>
<rect x="16" y="14" width="2" height="1" fill="#d0f0ec"/>
<rect x="18" y="14" width="3" height="1" fill="#1a9e8a"/>
<rect x="21" y="14" width="1" height="1" fill="#d0f0ec"/>
<rect x="23" y="14" width="1" height="1" fill="#080818"/>
<rect x="0" y="15" width="1" height="1" fill="#3828a8"/>
<rect x="1" y="15" width="1" height="1" fill="#58e890"/>
<rect x="2" y="15" width="2" height="1" fill="#d0f0ec"/>
<rect x="4" y="15" width="1" height="1" fill="#58e890"/>
<rect x="5" y="15" width="1" height="1" fill="#1a9e8a"/>
<rect x="6" y="15" width="1" height="1" fill="#d0f0ec"/>
<rect x="7" y="15" width="1" height="1" fill="#58e890"/>
<rect x="8" y="15" width="5" height="1" fill="#30c8b0"/>
<rect x="13" y="15" width="1" height="1" fill="#1a9e8a"/>
<rect x="14" y="15" width="1" height="1" fill="#30c8b0"/>
<rect x="15" y="15" width="1" height="1" fill="#58e890"/>
<rect x="16" y="15" width="1" height="1" fill="#d0f0ec"/>
<rect x="17" y="15" width="1" height="1" fill="#1a9e8a"/>
<rect x="18" y="15" width="4" height="1" fill="#d0f0ec"/>
<rect x="22" y="15" width="1" height="1" fill="#58e890"/>
<rect x="23" y="15" width="1" height="1" fill="#080818"/>
<rect x="0" y="16" width="1" height="1" fill="#3828a8"/>
<rect x="1" y="16" width="1" height="1" fill="#58e890"/>
<rect x="2" y="16" width="1" height="1" fill="#d0f0ec"/>
<rect x="3" y="16" width="1" height="1" fill="#58e890"/>
<rect x="4" y="16" width="1" height="1" fill="#1a9e8a"/>
<rect x="5" y="16" width="2" height="1" fill="#d0f0ec"/>
<rect x="7" y="16" width="1" height="1" fill="#58e890"/>
<rect x="8" y="16" width="6" height="1" fill="#30c8b0"/>
<rect x="14" y="16" width="3" height="1" fill="#1a9e8a"/>
<rect x="17" y="16" width="5" height="1" fill="#d0f0ec"/>
<rect x="22" y="16" width="1" height="1" fill="#58e890"/>
<rect x="23" y="16" width="1" height="1" fill="#080818"/>
<rect x="0" y="17" width="1" height="1" fill="#3828a8"/>
<rect x="1" y="17" width="2" height="1" fill="#58e890"/>
<rect x="3" y="17" width="1" height="1" fill="#1a9e8a"/>
<rect x="4" y="17" width="3" height="1" fill="#d0f0ec"/>
<rect x="7" y="17" width="1" height="1" fill="#58e890"/>
<rect x="8" y="17" width="7" height="1" fill="#30c8b0"/>
<rect x="15" y="17" width="1" height="1" fill="#58e890"/>
<rect x="16" y="17" width="6" height="1" fill="#d0f0ec"/>
<rect x="22" y="17" width="1" height="1" fill="#58e890"/>
<rect x="23" y="17" width="1" height="1" fill="#080818"/>
<rect x="0" y="18" width="1" height="1" fill="#3828a8"/>
<rect x="1" y="18" width="2" height="1" fill="#1a9e8a"/>
<rect x="3" y="18" width="4" height="1" fill="#d0f0ec"/>
<rect x="7" y="18" width="1" height="1" fill="#58e890"/>
<rect x="8" y="18" width="7" height="1" fill="#30c8b0"/>
<rect x="15" y="18" width="1" height="1" fill="#58e890"/>
<rect x="16" y="18" width="6" height="1" fill="#d0f0ec"/>
<rect x="22" y="18" width="1" height="1" fill="#58e890"/>
<rect x="23" y="18" width="1" height="1" fill="#080818"/>
<rect x="0" y="19" width="1" height="1" fill="#3828a8"/>
<rect x="1" y="19" width="1" height="1" fill="#58e890"/>
<rect x="2" y="19" width="4" height="1" fill="#d0f0ec"/>
<rect x="6" y="19" width="1" height="1" fill="#58e890"/>
<rect x="7" y="19" width="2" height="1" fill="#1a9e8a"/>
<rect x="9" y="19" width="6" height="1" fill="#30c8b0"/>
<rect x="15" y="19" width="1" height="1" fill="#58e890"/>
<rect x="16" y="19" width="5" height="1" fill="#d0f0ec"/>
<rect x="21" y="19" width="1" height="1" fill="#58e890"/>
<rect x="22" y="19" width="1" height="1" fill="#1a9e8a"/>
<rect x="23" y="19" width="1" height="1" fill="#080818"/>
<rect x="0" y="20" width="1" height="1" fill="#3828a8"/>
<rect x="1" y="20" width="1" height="1" fill="#58e890"/>
<rect x="2" y="20" width="2" height="1" fill="#d0f0ec"/>
<rect x="4" y="20" width="1" height="1" fill="#58e890"/>
<rect x="5" y="20" width="1" height="1" fill="#1a9e8a"/>
<rect x="6" y="20" width="2" height="1" fill="#3828a8"/>
<rect x="8" y="20" width="1" height="1" fill="#080818"/>
<rect x="9" y="20" width="2" height="1" fill="#1a9e8a"/>
<rect x="11" y="20" width="4" height="1" fill="#30c8b0"/>
<rect x="15" y="20" width="1" height="1" fill="#58e890"/>
<rect x="16" y="20" width="3" height="1" fill="#d0f0ec"/>
<rect x="19" y="20" width="1" height="1" fill="#58e890"/>
<rect x="20" y="20" width="1" height="1" fill="#1a9e8a"/>
<rect x="21" y="20" width="1" height="1" fill="#3828a8"/>
<rect x="22" y="20" width="2" height="1" fill="#080818"/>
<rect x="0" y="21" width="1" height="1" fill="#3828a8"/>
<rect x="1" y="21" width="1" height="1" fill="#58e890"/>
<rect x="2" y="21" width="1" height="1" fill="#d0f0ec"/>
<rect x="3" y="21" width="1" height="1" fill="#1a9e8a"/>
<rect x="4" y="21" width="2" height="1" fill="#3828a8"/>
<rect x="9" y="21" width="2" height="1" fill="#080818"/>
<rect x="11" y="21" width="2" height="1" fill="#1a9e8a"/>
<rect x="13" y="21" width="2" height="1" fill="#30c8b0"/>
<rect x="15" y="21" width="1" height="1" fill="#58e890"/>
<rect x="16" y="21" width="1" height="1" fill="#d0f0ec"/>
<rect x="17" y="21" width="1" height="1" fill="#58e890"/>
<rect x="18" y="21" width="1" height="1" fill="#1a9e8a"/>
<rect x="19" y="21" width="2" height="1" fill="#3828a8"/>
<rect x="0" y="22" width="1" height="1" fill="#3828a8"/>
<rect x="1" y="22" width="2" height="1" fill="#1a9e8a"/>
<rect x="3" y="22" width="1" height="1" fill="#3828a8"/>
<rect x="11" y="22" width="2" height="1" fill="#080818"/>
<rect x="13" y="22" width="4" height="1" fill="#1a9e8a"/>
<rect x="17" y="22" width="2" height="1" fill="#3828a8"/>
<rect x="0" y="23" width="3" height="1" fill="#3828a8"/>
<rect x="13" y="23" width="2" height="1" fill="#080818"/>
<rect x="15" y="23" width="2" height="1" fill="#3828a8"/>
</svg>