<?xml version="1.0" encoding="UTF-8"?>
<svg xmlns="http://www.w3.org/2000/svg" viewBox="0 0 24 24" width="24" height="24" shape-rendering="crispEdges">
<rect x="9" y="1" width="6" height="1" fill="#080818"/>
<rect x="6" y="2" width="3" height="1" fill="#080818"/>
<rect x="9" y="2" width="6" height="1" fill="#e8e0f8"/>
<rect x="15" y="2" width="3" height="1" fill="#3828a8"/>
<rect x="5" y="3" width="1" height="1" fill="#080818"/>
<rect x="6" y="3" width="12" height="1" fill="#e8e0f8"/>
<rect x="18" y="3" width="1" height="1" fill="#3828a8"/>
<rect x="4" y="4" width="1" height="1" fill="#080818"/>
<rect x="5" y="4" width="2" height="1" fill="#e8e0f8"/>
<rect x="7" y="4" width="3" height="1" fill="#e840a0"/>
<rect x="10" y="4" width="9" height="1" fill="#e8e0f8"/>
<rect x="19" y="4" width="1" height="1" fill="#3828a8"/>
<rect x="3" y="5" width="1" height="1" fill="#080818"/>
<rect x="4" y="5" width="2" height="1" fill="#e8e0f8"/>
<rect x="6" y="5" width="2" height="1" fill="#e840a0"/>
<rect x="8" y="5" width="12" height="1" fill="#e8e0f8"/>
<rect x="20" y="5" width="1" height="1" fill="#3828a8"/>
<rect x="3" y="6" width="1" height="1" fill="#080818"/>
<rect x="4" y="6" width="1" height="1" fill="#e8e0f8"/>
<rect x="5" y="6" width="1" height="1" fill="#e840a0"/>
<rect x="6" y="6" width="14" height="1" fill="#e8e0f8"/>
<rect x="20" y="6" width="1" height="1" fill="#3828a8"/>
<rect x="2" y="7" width="1" height="1" fill="#080818"/>
<rect x="3" y="7" width="18" height="1" fill="#e8e0f8"/>
<rect x="21" y="7" width="1" height="1" fill="#3828a8"/>
<rect x="2" y="8" width="1" height="1" fill="#080818"/>
<rect x="3" y="8" width="3" height="1" fill="#e8e0f8"/>
<rect x="6" y="8" width="3" height="1" fill="#3828a8"/>
<rect x="9" y="8" width="6" height="1" fill="#e8e0f8"/>
<rect x="15" y="8" width="3" height="1" fill="#3828a8"/>
<rect x="18" y="8" width="3" height="1" fill="#e8e0f8"/>
<rect x="21" y="8" width="1" height="1" fill="#3828a8"/>
<rect x="1" y="9" width="1" height="1" fill="#080818"/>
<rect x="2" y="9" width="3" height="1" fill="#e8e0f8"/>
<rect x="5" y="9" width="1" height="1" fill="#3828a8"/>
<rect x="6" y="9" width="3" height="1" fill="#080818"/>
<rect x="9" y="9" width="1" height="1" fill="#3828a8"/>
<rect x="10" y="9" width="4" height="1" fill="#e8e0f8"/>
<rect x="14" y="9" width="1" height="1" fill="#3828a8"/>
<rect x="15" y="9" width="3" height="1" fill="#080818"/>
<rect x="18" y="9" width="1" height="1" fill="#3828a8"/>
<rect x="19" y="9" width="3" height="1" fill="#e8e0f8"/>
<rect x="22" y="9" width="1" height="1" fill="#3828a8"/>
<rect x="1" y="10" width="1" height="1" fill="#080818"/>
<rect x="2" y="10" width="3" height="1" fill="#e8e0f8"/>
<rect x="5" y="10" width="5" height="1" fill="#080818"/>
<rect x="10" y="10" width="4" height="1" fill="#e8e0f8"/>
<rect x="14" y="10" width="5" height="1" fill="#080818"/>
<rect x="19" y="10" width="3" height="1" fill="#e8e0f8"/>
<rect x="22" y="10" width="1" height="1" fill="#3828a8"/>
<rect x="1" y="11" width="1" height="1" fill="#080818"/>
<rect x="2" y="11" width="3" height="1" fill="#e8e0f8"/>
<rect x="5" y="11" width="1" height="1" fill="#080818"/>
<rect x="6" y="11" width="1" height="1" fill="#e840a0"/>
<rect x="7" y="11" width="3" height="1" fill="#080818"/>
<rect x="10" y="11" width="4" height="1" fill="#e8e0f8"/>
<rect x="14" y="11" width="1" height="1" fill="#080818"/>
<rect x="15" y="11" width="1" height="1" fill="#e840a0"/>
<rect x="16" y="11" width="3" height="1" fill="#080818"/>
<rect x="19" y="11" width="3" height="1" fill="#e8e0f8"/>
<rect x="22" y="11" width="1" height="1" fill="#3828a8"/>
<rect x="1" y="12" width="1" height="1" fill="#080818"/>
<rect x="2" y="12" width="3" height="1" fill="#e8e0f8"/>
<rect x="5" y="12" width="5" height="1" fill="#080818"/>
<rect x="10" y="12" width="4" height="1" fill="#e8e0f8"/>
<rect x="14" y="12" width="5" height="1" fill="#080818"/>
<rect x="19" y="12" width="3" height="1" fill="#e8e0f8"/>
<rect x="22" y="12" width="1" height="1" fill="#3828a8"/>
<rect x="2" y="13" width="2" height="1" fill="#080818"/>
<rect x="4" y="13" width="1" height="1" fill="#e8e0f8"/>
<rect x="5" y="13" width="1" height="1" fill="#30c8b0"/>
<rect x="6" y="13" width="3" height="1" fill="#080818"/>
<rect x="9" y="13" width="1" height="1" fill="#30c8b0"/>
<rect x="10" y="13" width="4" height="1" fill="#e8e0f8"/>
<rect x="14" y="13" width="1" height="1" fill="#30c8b0"/>
<rect x="15" y="13" width="3" height="1" fill="#080818"/>
<rect x="18" y="13" width="1" height="1" fill="#30c8b0"/>
<rect x="19" y="13" width="1" height="1" fill="#e8e0f8"/>
<rect x="20" y="13" width="2" height="1" fill="#3828a8"/>
<rect x="3" y="14" width="1" height="1" fill="#080818"/>
<rect x="4" y="14" width="1" height="1" fill="#e8e0f8"/>
<rect x="5" y="14" width="1" height="1" fill="#3828a8"/>
<rect x="6" y="14" width="3" height="1" fill="#30c8b0"/>
<rect x="9" y="14" width="1" height="1" fill="#3828a8"/>
<rect x="10" y="14" width="1" height="1" fill="#e8e0f8"/>
<rect x="11" y="14" width="1" height="1" fill="#080818"/>
<rect x="12" y="14" width="2" height="1" fill="#e8e0f8"/>
<rect x="14" y="14" width="1" height="1" fill="#3828a8"/>
<rect x="15" y="14" width="3" height="1" fill="#30c8b0"/>
<rect x="18" y="14" width="1" height="1" fill="#3828a8"/>
<rect x="19" y="14" width="1" height="1" fill="#e8e0f8"/>
<rect x="20" y="14" width="1" height="1" fill="#3828a8"/>
<rect x="3" y="15" width="1" height="1" fill="#080818"/>
<rect x="4" y="15" width="2" height="1" fill="#e8e0f8"/>
<rect x="6" y="15" width="3" height="1" fill="#3828a8"/>
<rect x="9" y="15" width="2" height="1" fill="#e8e0f8"/>
<rect x="11" y="15" width="2" height="1" fill="#080818"/>
<rect x="13" y="15" width="2" height="1" fill="#e8e0f8"/>
<rect x="15" y="15" width="3" height="1" fill="#3828a8"/>
<rect x="18" y="15" width="2" height="1" fill="#e8e0f8"/>
<rect x="20" y="15" width="1" height="1" fill="#3828a8"/>
<rect x="4" y="16" width="1" height="1" fill="#080818"/>
<rect x="5" y="16" width="14" height="1" fill="#e8e0f8"/>
<rect x="19" y="16" width="1" height="1" fill="#3828a8"/>
<rect x="5" y="17" width="3" height="1" fill="#080818"/>
<rect x="8" y="17" width="8" height="1" fill="#e8e0f8"/>
<rect x="16" y="17" width="3" height="1" fill="#3828a8"/>
<rect x="6" y="18" width="1" height="1" fill="#080818"/>
<rect x="7" y="18" width="10" height="1" fill="#e8e0f8"/>
<rect x="17" y="18" width="1" height="1" fill="#080818"/>
<rect x="6" y="19" width="1" height="1" fill="#080818"/>
<rect x="7" y="19" width="2" height="1" fill="#e8e0f8"/>
<rect x="9" y="19" width="1" height="1" fill="#080818"/>
<rect x="10" y="19" width="1" height="1" fill="#e8e0f8"/>
<rect x="11" y="19" width="1" height="1" fill="#080818"/>
<rect x="12" y="19" width="2" height="1" fill="#e8e0f8"/>
<rect x="14" y="19" width="1" height="1" fill="#080818"/>
<rect x="15" y="19" width="2" height="1" fill="#e8e0f8"/>
<rect x="17" y="19" width="1" height="1" fill="#080818"/>
<rect x="6" y="20" width="1" height="1" fill="#080818"/>
<rect x="7" y="20" width="1" height="1" fill="#e8e0f8"/>
<rect x="8" y="20" width="1" height="1" fill="#30c8b0"/>
<rect x="9" y="20" width="1" height="1" fill="#080818"/>
<rect x="10" y="20" width="1" height="1" fill="#30c8b0"/>
<rect x="11" y="20" width="1" height="1" fill="#080818"/>
<rect x="12" y="20" width="1" height="1" fill="#30c8b0"/>
<rect x="13" y="20" width="1" height="1" fill="#e8e0f8"/>
<rect x="14" y="20" width="1" height="1" fill="#080818"/>
<rect x="15" y="20" width="1" height="1" fill="#30c8b0"/>
<rect x="16" y="20" width="1" height="1" fill="#e8e0f8"/>
<rect x="17" y="20" width="1" height="1" fill="#080818"/>
<rect x="6" y="21" width="1" height="1" fill="#080818"/>
<rect x="7" y="21" width="2" height="1" fill="#30c8b0"/>
<rect x="9" y="21" width="1" height="1" fill="#080818"/>
<rect x="10" y="21" width="1" height="1" fill="#30c8b0"/>
<rect x="11" y="21" width="1" height="1" fill="#080818"/>
<rect x="12" y="21" width="2" height="1" fill="#30c8b0"/>
<rect x="14" y="21" width="1" height="1" fill="#080818"/>
<rect x="15" y="21" width="2" height="1" fill="#30c8b0"/>
<rect x="17" y="21" width="1" height="1" fill="#080818"/>
<rect x="7" y="22" width="2" height="1" fill="#080818"/>
<rect x="10" y="22" width="1" height="1" fill="#080818"/>
<rect x="12" y="22" width="2" height="1" fill="#080818"/>
<rect x="15" y="22" width="2" height="1" fill="#080818"/>
</svg>