<?xml version="1.0" encoding="UTF-8"?>
<svg xmlns="http://www.w3.org/2000/svg" viewBox="0 0 24 24" width="24" height="24" shape-rendering="crispEdges">
<rect x="7" y="0" width="1" height="1" fill="#d0f0ec"/>
<rect x="8" y="0" width="1" height="1" fill="#58e890"/>
<rect x="14" y="0" width="1" height="1" fill="#d0f0ec"/>
<rect x="15" y="0" width="1" height="1" fill="#58e890"/>
<rect x="7" y="1" width="1" height="1" fill="#d0f0ec"/>
<rect x="8" y="1" width="1" height="1" fill="#58e890"/>
<rect x="13" y="1" width="1" height="1" fill="#d0f0ec"/>
<rect x="14" y="1" width="2" height="1" fill="#58e890"/>
<rect x="7" y="2" width="2" height="1" fill="#58e890"/>
<rect x="9" y="2" width="1" height="1" fill="#30c8b0"/>
<rect x="12" y="2" width="4" height="1" fill="#58e890"/>
<rect x="8" y="3" width="2" height="1" fill="#58e890"/>
<rect x="10" y="3" width="1" height="1" fill="#30c8b0"/>
<rect x="11" y="3" width="4" height="1" fill="#58e890"/>
<rect x="9" y="4" width="2" height="1" fill="#30c8b0"/>
<rect x="11" y="4" width="1" height="1" fill="#58e890"/>
<rect x="12" y="4" width="1" height="1" fill="#30c8b0"/>
<rect x="11" y="5" width="1" height="1" fill="#30c8b0"/>
<rect x="16" y="5" width="1" height="1" fill="#f0d030"/>
<rect x="11" y="6" width="1" height="1" fill="#30c8b0"/>
<rect x="14" y="6" width="1" height="1" fill="#f0d030"/>
<rect x="18" y="6" width="1" height="1" fill="#f0d030"/>
<rect x="11" y="7" width="1" height="1" fill="#30c8b0"/>
<rect x="16" y="7" width="1" height="1" fill="#f0d030"/>
<rect x="11" y="8" width="1" height="1" fill="#30c8b0"/>
<rect x="14" y="8" width="1" height="1" fill="#e840a0"/>
<rect x="18" y="8" width="1" height="1" fill="#f0d030"/>
<rect x="11" y="9" width="1" height="1" fill="#30c8b0"/>
<rect x="16" y="9" width="1" height="1" fill="#f0d030"/>
<rect x="11" y="10" width="1" height="1" fill="#1a9e8a"/>
<rect x="17" y="10" width="1" height="1" fill="#f0d030"/>
<rect x="11" y="11" width="1" height="1" fill="#1a9e8a"/>
<rect x="11" y="12" width="1" height="1" fill="#1a9e8a"/>
<rect x="11" y="13" width="1" height="1" fill="#1a9e8a"/>
<rect x="11" y="14" width="1" height="1" fill="#1a9e8a"/>
<rect x="11" y="15" width="1" height="1" fill="#1a9e8a"/>
<rect x="10" y="16" width="1" height="1" fill="#30c8b0"/>
<rect x="11" y="16" width="1" height="1" fill="#1a9e8a"/>
<rect x="10" y="17" width="1" height="1" fill="#30c8b0"/>
<rect x="11" y="17" width="1" height="1" fill="#1a9e8a"/>
<rect x="10" y="18" width="1" height="1" fill="#1a9e8a"/>
<rect x="11" y="18" width="1" height="1" fill="#3828a8"/>
<rect x="9" y="19" width="1" height="1" fill="#080818"/>
<rect x="10" y="19" width="1" height="1" fill="#1a9e8a"/>
<rect x="11" y="19" width="1" height="1" fill="#3828a8"/>
<rect x="12" y="19" width="1" height="1" fill="#080818"/>
<rect x="7" y="20" width="2" height="1" fill="#080818"/>
<rect x="9" y="20" width="1" height="1" fill="#1a9e8a"/>
<rect x="10" y="20" width="1" height="1" fill="#080818"/>
<rect x="11" y="20" width="1" height="1" fill="#3828a8"/>
<rect x="12" y="20" width="2" height="1" fill="#080818"/>
<rect x="6" y="21" width="2" height="1" fill="#080818"/>
<rect x="8" y="21" width="1" height="1" fill="#3828a8"/>
<rect x="9" y="21" width="4" height="1" fill="#080818"/>
<rect x="13" y="21" width="1" height="1" fill="#3828a8"/>
<rect x="14" y="21" width="3" height="1" fill="#080818"/>
<rect x="5" y="22" width="1" height="1" fill="#080818"/>
<rect x="6" y="22" width="1" height="1" fill="#1a9e8a"/>
<rect x="7" y="22" width="3" height="1" fill="#080818"/>
<rect x="10" y="22" width="1" height="1" fill="#3828a8"/>
<rect x="11" y="22" width="4" height="1" fill="#080818"/>
<rect x="15" y="22" width="1" height="1" fill="#1a9e8a"/>
<rect x="16" y="22" width="2" height="1" fill="#080818"/>
<rect x="4" y="23" width="3" height="1" fill="#080818"/>
<rect x="7" y="23" width="1" height="1" fill="#1a9e8a"/>
<rect x="8" y="23" width="4" height="1" fill="#080818"/>
<rect x="12" y="23" width="1" height="1" fill="#1a9e8a"/>
<rect x="13" y="23" width="4" height="1" fill="#080818"/>
<rect x="17" y="23" width="1" height="1" fill="#1a9e8a"/>
<rect x="18" y="23" width="1" height="1" fill="#080818"/>
</svg>