<?xml version="1.0" encoding="UTF-8"?>
<svg xmlns="http://www.w3.org/2000/svg" viewBox="0 0 24 24" width="24" height="24" shape-rendering="crispEdges">
<rect x="11" y="0" width="1" height="1" fill="#f0d030"/>
<rect x="11" y="1" width="1" height="1" fill="#f0d030"/>
<rect x="2" y="2" width="1" height="1" fill="#f0d030"/>
<rect x="8" y="2" width="1" height="1" fill="#f0d030"/>
<rect x="11" y="2" width="1" height="1" fill="#f0d030"/>
<rect x="15" y="2" width="1" height="1" fill="#f0d030"/>
<rect x="21" y="2" width="1" height="1" fill="#f0d030"/>
<rect x="3" y="3" width="1" height="1" fill="#f0d030"/>
<rect x="8" y="3" width="1" height="1" fill="#f0d030"/>
<rect x="11" y="3" width="1" height="1" fill="#f0d030"/>
<rect x="15" y="3" width="1" height="1" fill="#f0d030"/>
<rect x="20" y="3" width="1" height="1" fill="#f0d030"/>
<rect x="4" y="4" width="1" height="1" fill="#f0d030"/>
<rect x="19" y="4" width="1" height="1" fill="#f0d030"/>
<rect x="5" y="5" width="1" height="1" fill="#f0d030"/>
<rect x="9" y="5" width="6" height="1" fill="#f0d030"/>
<rect x="18" y="5" width="1" height="1" fill="#f0d030"/>
<rect x="8" y="6" width="8" height="1" fill="#f0d030"/>
<rect x="7" y="7" width="10" height="1" fill="#f0d030"/>
<rect x="2" y="8" width="2" height="1" fill="#f0d030"/>
<rect x="6" y="8" width="12" height="1" fill="#f0d030"/>
<rect x="20" y="8" width="2" height="1" fill="#f0d030"/>
<rect x="5" y="9" width="14" height="1" fill="#f0d030"/>
<rect x="5" y="10" width="14" height="1" fill="#f0d030"/>
<rect x="5" y="11" width="14" height="1" fill="#f0d030"/>
<rect x="20" y="11" width="4" height="1" fill="#f0d030"/>
<rect x="0" y="12" width="4" height="1" fill="#f0d030"/>
<rect x="5" y="12" width="14" height="1" fill="#f0d030"/>
<rect x="5" y="13" width="14" height="1" fill="#f0d030"/>
<rect x="5" y="14" width="14" height="1" fill="#f0d030"/>
<rect x="2" y="15" width="2" height="1" fill="#f0d030"/>
<rect x="6" y="15" width="12" height="1" fill="#f0d030"/>
<rect x="20" y="15" width="2" height="1" fill="#f0d030"/>
<rect x="7" y="16" width="10" height="1" fill="#f0d030"/>
<rect x="8" y="17" width="8" height="1" fill="#f0d030"/>
<rect x="5" y="18" width="1" height="1" fill="#f0d030"/>
<rect x="9" y="18" width="6" height="1" fill="#f0d030"/>
<rect x="18" y="18" width="1" height="1" fill="#f0d030"/>
<rect x="4" y="19" width="1" height="1" fill="#f0d030"/>
<rect x="19" y="19" width="1" height="1" fill="#f0d030"/>
<rect x="3" y="20" width="1" height="1" fill="#f0d030"/>
<rect x="8" y="20" width="1" height="1" fill="#f0d030"/>
<rect x="12" y="20" width="1" height="1" fill="#f0d030"/>
<rect x="15" y="20" width="1" height="1" fill="#f0d030"/>
<rect x="20" y="20" width="1" height="1" fill="#f0d030"/>
<rect x="2" y="21" width="1" height="1" fill="#f0d030"/>
<rect x="8" y="21" width="1" height="1" fill="#f0d030"/>
<rect x="12" y="21" width="1" height="1" fill="#f0d030"/>
<rect x="15" y="21" width="1" height="1" fill="#f0d030"/>
<rect x="21" y="21" width="1" height="1" fill="#f0d030"/>
<rect x="12" y="22" width="1" height="1" fill="#f0d030"/>
<rect x="12" y="23" width="1" height="1" fill="#f0d030"/>
</svg>