<?xml version="1.0" encoding="UTF-8"?>
<svg xmlns="http://www.w3.org/2000/svg" viewBox="0 0 24 24" width="24" height="24" shape-rendering="crispEdges">
<rect x="1" y="0" width="22" height="1" fill="#e840a0"/>
<rect x="0" y="1" width="24" height="1" fill="#e840a0"/>
<rect x="0" y="2" width="2" height="1" fill="#e840a0"/>
<rect x="22" y="2" width="2" height="1" fill="#e840a0"/>
<rect x="0" y="3" width="2" height="1" fill="#e840a0"/>
<rect x="3" y="3" width="1" height="1" fill="#e840a0"/>
<rect x="20" y="3" width="1" height="1" fill="#e840a0"/>
<rect x="22" y="3" width="2" height="1" fill="#e840a0"/>
<rect x="0" y="4" width="2" height="1" fill="#e840a0"/>
<rect x="4" y="4" width="1" height="1" fill="#e840a0"/>
<rect x="19" y="4" width="1" height="1" fill="#e840a0"/>
<rect x="22" y="4" width="2" height="1" fill="#e840a0"/>
<rect x="0" y="5" width="2" height="1" fill="#e840a0"/>
<rect x="5" y="5" width="1" height="1" fill="#e840a0"/>
<rect x="18" y="5" width="1" height="1" fill="#e840a0"/>
<rect x="22" y="5" width="2" height="1" fill="#e840a0"/>
<rect x="0" y="6" width="2" height="1" fill="#e840a0"/>
<rect x="6" y="6" width="1" height="1" fill="#e840a0"/>
<rect x="17" y="6" width="1" height="1" fill="#e840a0"/>
<rect x="22" y="6" width="2" height="1" fill="#e840a0"/>
<rect x="0" y="7" width="2" height="1" fill="#e840a0"/>
<rect x="7" y="7" width="1" height="1" fill="#e840a0"/>
<rect x="16" y="7" width="1" height="1" fill="#e840a0"/>
<rect x="22" y="7" width="2" height="1" fill="#e840a0"/>
<rect x="0" y="8" width="2" height="1" fill="#e840a0"/>
<rect x="8" y="8" width="1" height="1" fill="#e840a0"/>
<rect x="15" y="8" width="1" height="1" fill="#e840a0"/>
<rect x="22" y="8" width="2" height="1" fill="#e840a0"/>
<rect x="0" y="9" width="2" height="1" fill="#e840a0"/>
<rect x="9" y="9" width="1" height="1" fill="#e840a0"/>
<rect x="14" y="9" width="1" height="1" fill="#e840a0"/>
<rect x="22" y="9" width="2" height="1" fill="#e840a0"/>
<rect x="0" y="10" width="2" height="1" fill="#e840a0"/>
<rect x="10" y="10" width="1" height="1" fill="#e840a0"/>
<rect x="13" y="10" width="1" height="1" fill="#e840a0"/>
<rect x="22" y="10" width="2" height="1" fill="#e840a0"/>
<rect x="0" y="11" width="2" height="1" fill="#e840a0"/>
<rect x="11" y="11" width="2" height="1" fill="#e840a0"/>
<rect x="22" y="11" width="2" height="1" fill="#e840a0"/>
<rect x="0" y="12" width="2" height="1" fill="#e840a0"/>
<rect x="11" y="12" width="2" height="1" fill="#e840a0"/>
<rect x="22" y="12" width="2" height="1" fill="#e840a0"/>
<rect x="0" y="13" width="2" height="1" fill="#e840a0"/>
<rect x="10" y="13" width="1" height="1" fill="#e840a0"/>
<rect x="13" y="13" width="1" height="1" fill="#e840a0"/>
<rect x="22" y="13" width="2" height="1" fill="#e840a0"/>
<rect x="0" y="14" width="2" height="1" fill="#e840a0"/>
<rect x="9" y="14" width="1" height="1" fill="#e840a0"/>
<rect x="14" y="14" width="1" height="1" fill="#e840a0"/>
<rect x="22" y="14" width="2" height="1" fill="#e840a0"/>
<rect x="0" y="15" width="2" height="1" fill="#e840a0"/>
<rect x="8" y="15" width="1" height="1" fill="#e840a0"/>
<rect x="15" y="15" width="1" height="1" fill="#e840a0"/>
<rect x="22" y="15" width="2" height="1" fill="#e840a0"/>
<rect x="0" y="16" width="2" height="1" fill="#e840a0"/>
<rect x="7" y="16" width="1" height="1" fill="#e840a0"/>
<rect x="16" y="16" width="1" height="1" fill="#e840a0"/>
<rect x="22" y="16" width="2" height="1" fill="#e840a0"/>
<rect x="0" y="17" width="2" height="1" fill="#e840a0"/>
<rect x="6" y="17" width="1" height="1" fill="#e840a0"/>
<rect x="17" y="17" width="1" height="1" fill="#e840a0"/>
<rect x="22" y="17" width="2" height="1" fill="#e840a0"/>
<rect x="0" y="18" width="2" height="1" fill="#e840a0"/>
<rect x="5" y="18" width="1" height="1" fill="#e840a0"/>
<rect x="18" y="18" width="1" height="1" fill="#e840a0"/>
<rect x="22" y="18" width="2" height="1" fill="#e840a0"/>
<rect x="0" y="19" width="2" height="1" fill="#e840a0"/>
<rect x="4" y="19" width="1" height="1" fill="#e840a0"/>
<rect x="19" y="19" width="1" height="1" fill="#e840a0"/>
<rect x="22" y="19" width="2" height="1" fill="#e840a0"/>
<rect x="0" y="20" width="2" height="1" fill="#e840a0"/>
<rect x="3" y="20" width="1" height="1" fill="#e840a0"/>
<rect x="20" y="20" width="1" height="1" fill="#e840a0"/>
<rect x="22" y="20" width="2" height="1" fill="#e840a0"/>
<rect x="0" y="21" width="2" height="1" fill="#e840a0"/>
<rect x="22" y="21" width="2" height="1" fill="#e840a0"/>
<rect x="0" y="22" width="24" height="1" fill="#e840a0"/>
<rect x="1" y="23" width="22" height="1" fill="#e840a0"/>
</svg>