<?xml version="1.0" encoding="UTF-8"?>
<svg xmlns="http://www.w3.org/2000/svg" viewBox="0 0 24 24" width="24" height="24" shape-rendering="crispEdges">
<rect x="11" y="0" width="1" height="1" fill="#30c8b0"/>
<rect x="10" y="1" width="1" height="1" fill="#30c8b0"/>
<rect x="11" y="1" width="1" height="1" fill="#d0f0ec"/>
<rect x="12" y="1" width="1" height="1" fill="#30c8b0"/>
<rect x="9" y="2" width="1" height="1" fill="#30c8b0"/>
<rect x="10" y="2" width="2" height="1" fill="#d0f0ec"/>
<rect x="12" y="2" width="1" height="1" fill="#30c8b0"/>
<rect x="8" y="3" width="1" height="1" fill="#30c8b0"/>
<rect x="9" y="3" width="4" height="1" fill="#d0f0ec"/>
<rect x="13" y="3" width="1" height="1" fill="#30c8b0"/>
<rect x="8" y="4" width="1" height="1" fill="#30c8b0"/>
<rect x="9" y="4" width="5" height="1" fill="#d0f0ec"/>
<rect x="14" y="4" width="1" height="1" fill="#30c8b0"/>
<rect x="7" y="5" width="1" height="1" fill="#30c8b0"/>
<rect x="8" y="5" width="6" height="1" fill="#d0f0ec"/>
<rect x="14" y="5" width="1" height="1" fill="#30c8b0"/>
<rect x="7" y="6" width="1" height="1" fill="#30c8b0"/>
<rect x="8" y="6" width="7" height="1" fill="#d0f0ec"/>
<rect x="15" y="6" width="1" height="1" fill="#30c8b0"/>
<rect x="6" y="7" width="1" height="1" fill="#30c8b0"/>
<rect x="7" y="7" width="6" height="1" fill="#d0f0ec"/>
<rect x="13" y="7" width="1" height="1" fill="#eaf8f6"/>
<rect x="14" y="7" width="2" height="1" fill="#d0f0ec"/>
<rect x="16" y="7" width="1" height="1" fill="#30c8b0"/>
<rect x="5" y="8" width="1" height="1" fill="#30c8b0"/>
<rect x="6" y="8" width="7" height="1" fill="#d0f0ec"/>
<rect x="13" y="8" width="1" height="1" fill="#eaf8f6"/>
<rect x="14" y="8" width="3" height="1" fill="#d0f0ec"/>
<rect x="5" y="9" width="1" height="1" fill="#30c8b0"/>
<rect x="6" y="9" width="7" height="1" fill="#d0f0ec"/>
<rect x="13" y="9" width="2" height="1" fill="#eaf8f6"/>
<rect x="15" y="9" width="2" height="1" fill="#d0f0ec"/>
<rect x="17" y="9" width="1" height="1" fill="#30c8b0"/>
<rect x="5" y="10" width="1" height="1" fill="#30c8b0"/>
<rect x="6" y="10" width="8" height="1" fill="#d0f0ec"/>
<rect x="14" y="10" width="1" height="1" fill="#eaf8f6"/>
<rect x="15" y="10" width="3" height="1" fill="#d0f0ec"/>
<rect x="4" y="11" width="1" height="1" fill="#30c8b0"/>
<rect x="5" y="11" width="10" height="1" fill="#d0f0ec"/>
<rect x="15" y="11" width="1" height="1" fill="#eaf8f6"/>
<rect x="16" y="11" width="2" height="1" fill="#d0f0ec"/>
<rect x="18" y="11" width="1" height="1" fill="#30c8b0"/>
<rect x="4" y="12" width="1" height="1" fill="#30c8b0"/>
<rect x="5" y="12" width="10" height="1" fill="#d0f0ec"/>
<rect x="15" y="12" width="2" height="1" fill="#eaf8f6"/>
<rect x="17" y="12" width="2" height="1" fill="#d0f0ec"/>
<rect x="19" y="12" width="1" height="1" fill="#30c8b0"/>
<rect x="4" y="13" width="1" height="1" fill="#30c8b0"/>
<rect x="5" y="13" width="10" height="1" fill="#d0f0ec"/>
<rect x="15" y="13" width="2" height="1" fill="#eaf8f6"/>
<rect x="17" y="13" width="2" height="1" fill="#d0f0ec"/>
<rect x="19" y="13" width="1" height="1" fill="#30c8b0"/>
<rect x="4" y="14" width="1" height="1" fill="#30c8b0"/>
<rect x="5" y="14" width="14" height="1" fill="#d0f0ec"/>
<rect x="19" y="14" width="1" height="1" fill="#30c8b0"/>
<rect x="3" y="15" width="1" height="1" fill="#30c8b0"/>
<rect x="4" y="15" width="16" height="1" fill="#d0f0ec"/>
<rect x="20" y="15" width="1" height="1" fill="#30c8b0"/>
<rect x="3" y="16" width="1" height="1" fill="#30c8b0"/>
<rect x="4" y="16" width="16" height="1" fill="#d0f0ec"/>
<rect x="20" y="16" width="1" height="1" fill="#30c8b0"/>
<rect x="3" y="17" width="1" height="1" fill="#30c8b0"/>
<rect x="4" y="17" width="16" height="1" fill="#d0f0ec"/>
<rect x="20" y="17" width="1" height="1" fill="#30c8b0"/>
<rect x="4" y="18" width="1" height="1" fill="#30c8b0"/>
<rect x="5" y="18" width="14" height="1" fill="#d0f0ec"/>
<rect x="19" y="18" width="1" height="1" fill="#30c8b0"/>
<rect x="4" y="19" width="1" height="1" fill="#30c8b0"/>
<rect x="5" y="19" width="14" height="1" fill="#d0f0ec"/>
<rect x="19" y="19" width="1" height="1" fill="#30c8b0"/>
<rect x="5" y="20" width="1" height="1" fill="#30c8b0"/>
<rect x="6" y="20" width="12" height="1" fill="#d0f0ec"/>
<rect x="18" y="20" width="1" height="1" fill="#30c8b0"/>
<rect x="6" y="21" width="1" height="1" fill="#30c8b0"/>
<rect x="7" y="21" width="10" height="1" fill="#d0f0ec"/>
<rect x="17" y="21" width="1" height="1" fill="#30c8b0"/>
<rect x="7" y="22" width="3" height="1" fill="#30c8b0"/>
<rect x="10" y="22" width="5" height="1" fill="#d0f0ec"/>
<rect x="15" y="22" width="2" height="1" fill="#30c8b0"/>
<rect x="10" y="23" width="5" height="1" fill="#30c8b0"/>
</svg>