<?xml version="1.0" encoding="UTF-8"?>
<svg xmlns="http://www.w3.org/2000/svg" viewBox="0 0 24 24" width="24" height="24" shape-rendering="crispEdges">
<rect x="8" y="0" width="8" height="1" fill="#3828a8"/>
<rect x="6" y="1" width="2" height="1" fill="#3828a8"/>
<rect x="8" y="1" width="8" height="1" fill="#e840a0"/>
<rect x="16" y="1" width="2" height="1" fill="#3828a8"/>
<rect x="5" y="2" width="1" height="1" fill="#3828a8"/>
<rect x="6" y="2" width="12" height="1" fill="#e840a0"/>
<rect x="18" y="2" width="1" height="1" fill="#3828a8"/>
<rect x="4" y="3" width="1" height="1" fill="#3828a8"/>
<rect x="5" y="3" width="14" height="1" fill="#e840a0"/>
<rect x="19" y="3" width="1" height="1" fill="#3828a8"/>
<rect x="4" y="4" width="1" height="1" fill="#3828a8"/>
<rect x="5" y="4" width="14" height="1" fill="#e840a0"/>
<rect x="19" y="4" width="1" height="1" fill="#3828a8"/>
<rect x="3" y="5" width="1" height="1" fill="#3828a8"/>
<rect x="4" y="5" width="16" height="1" fill="#e840a0"/>
<rect x="20" y="5" width="1" height="1" fill="#3828a8"/>
<rect x="3" y="6" width="1" height="1" fill="#3828a8"/>
<rect x="4" y="6" width="7" height="1" fill="#e840a0"/>
<rect x="11" y="6" width="2" height="1" fill="#080818"/>
<rect x="13" y="6" width="7" height="1" fill="#e840a0"/>
<rect x="20" y="6" width="1" height="1" fill="#3828a8"/>
<rect x="3" y="7" width="1" height="1" fill="#3828a8"/>
<rect x="4" y="7" width="6" height="1" fill="#e840a0"/>
<rect x="10" y="7" width="4" height="1" fill="#080818"/>
<rect x="14" y="7" width="6" height="1" fill="#e840a0"/>
<rect x="20" y="7" width="1" height="1" fill="#3828a8"/>
<rect x="3" y="8" width="1" height="1" fill="#3828a8"/>
<rect x="4" y="8" width="6" height="1" fill="#e840a0"/>
<rect x="10" y="8" width="4" height="1" fill="#080818"/>
<rect x="14" y="8" width="6" height="1" fill="#e840a0"/>
<rect x="20" y="8" width="1" height="1" fill="#3828a8"/>
<rect x="3" y="9" width="1" height="1" fill="#3828a8"/>
<rect x="4" y="9" width="7" height="1" fill="#e840a0"/>
<rect x="11" y="9" width="2" height="1" fill="#080818"/>
<rect x="13" y="9" width="7" height="1" fill="#e840a0"/>
<rect x="20" y="9" width="1" height="1" fill="#3828a8"/>
<rect x="3" y="10" width="1" height="1" fill="#3828a8"/>
<rect x="4" y="10" width="16" height="1" fill="#e840a0"/>
<rect x="20" y="10" width="1" height="1" fill="#3828a8"/>
<rect x="3" y="11" width="1" height="1" fill="#3828a8"/>
<rect x="4" y="11" width="16" height="1" fill="#e840a0"/>
<rect x="20" y="11" width="1" height="1" fill="#3828a8"/>
<rect x="4" y="12" width="1" height="1" fill="#3828a8"/>
<rect x="5" y="12" width="14" height="1" fill="#e840a0"/>
<rect x="19" y="12" width="1" height="1" fill="#3828a8"/>
<rect x="5" y="13" width="1" height="1" fill="#3828a8"/>
<rect x="6" y="13" width="12" height="1" fill="#e840a0"/>
<rect x="18" y="13" width="1" height="1" fill="#3828a8"/>
<rect x="5" y="14" width="1" height="1" fill="#3828a8"/>
<rect x="6" y="14" width="12" height="1" fill="#e840a0"/>
<rect x="18" y="14" width="1" height="1" fill="#3828a8"/>
<rect x="6" y="15" width="1" height="1" fill="#3828a8"/>
<rect x="7" y="15" width="10" height="1" fill="#e840a0"/>
<rect x="17" y="15" width="1" height="1" fill="#3828a8"/>
<rect x="6" y="16" width="1" height="1" fill="#3828a8"/>
<rect x="7" y="16" width="10" height="1" fill="#e840a0"/>
<rect x="17" y="16" width="1" height="1" fill="#3828a8"/>
<rect x="7" y="17" width="1" height="1" fill="#3828a8"/>
<rect x="8" y="17" width="8" height="1" fill="#e840a0"/>
<rect x="16" y="17" width="1" height="1" fill="#3828a8"/>
<rect x="8" y="18" width="1" height="1" fill="#3828a8"/>
<rect x="9" y="18" width="6" height="1" fill="#e840a0"/>
<rect x="15" y="18" width="1" height="1" fill="#3828a8"/>
<rect x="8" y="19" width="1" height="1" fill="#3828a8"/>
<rect x="9" y="19" width="6" height="1" fill="#e840a0"/>
<rect x="15" y="19" width="1" height="1" fill="#3828a8"/>
<rect x="9" y="20" width="1" height="1" fill="#3828a8"/>
<rect x="10" y="20" width="4" height="1" fill="#e840a0"/>
<rect x="14" y="20" width="1" height="1" fill="#3828a8"/>
<rect x="10" y="21" width="1" height="1" fill="#3828a8"/>
<rect x="11" y="21" width="2" height="1" fill="#e840a0"/>
<rect x="13" y="21" width="1" height="1" fill="#3828a8"/>
<rect x="10" y="22" width="1" height="1" fill="#3828a8"/>
<rect x="11" y="22" width="2" height="1" fill="#e840a0"/>
<rect x="13" y="22" width="1" height="1" fill="#3828a8"/>
<rect x="11" y="23" width="2" height="1" fill="#3828a8"/>
</svg>